<svg width="800" height="300" viewBox="0 0 800 300" xmlns="http://www.w3.org/2000/svg">
  <!-- Mid-range mountains with varied terrain -->
  <defs>
    <linearGradient id="mountainGradient6" x1="0%" y1="0%" x2="0%" y2="100%">
      <stop offset="0%" style="stop-color:#6b7280;stop-opacity:1" />
      <stop offset="50%" style="stop-color:#4b5563;stop-opacity:1" />
      <stop offset="100%" style="stop-color:#374151;stop-opacity:1" />
    </linearGradient>
  </defs>
  
  <!-- Sky background -->
  <rect width="800" height="300" fill="#a8c8ec" opacity="0.4"/>
  
  <!-- Main mountain range - varied heights -->
  <polygon points="0,160 80,140 160,100 240,130 320,90 400,110 480,80 560,120 640,95 720,140 800,120 800,300 0,300" 
           fill="url(#mountainGradient6)" opacity="0.95"/>
  
  <!-- Ridges and details -->
  <polygon points="120,100 180,85 220,110 160,100" fill="#4b5563" opacity="0.8"/>
  <polygon points="280,90 340,75 380,95 320,90" fill="#4b5563" opacity="0.8"/>
  <polygon points="440,80 500,65 540,85 480,80" fill="#4b5563" opacity="0.8"/>
  <polygon points="600,95 660,80 700,100 640,95" fill="#4b5563" opacity="0.8"/>
  
  <!-- Tree silhouettes on ridges -->
  <polygon points="200,100 205,90 210,100" fill="#1f2937" opacity="0.7"/>
  <polygon points="220,105 225,95 230,105" fill="#1f2937" opacity="0.7"/>
  <polygon points="350,90 355,80 360,90" fill="#1f2937" opacity="0.7"/>
  <polygon points="520,80 525,70 530,80" fill="#1f2937" opacity="0.7"/>
  <polygon points="540,85 545,75 550,85" fill="#1f2937" opacity="0.7"/>
  <polygon points="680,95 685,85 690,95" fill="#1f2937" opacity="0.7"/>
</svg>
