<svg width="200" height="120" viewBox="0 0 200 120" xmlns="http://www.w3.org/2000/svg" style="image-rendering: pixelated;">
  <!-- Distant Mountain Layer - Variation 3 (valley in middle) -->
  
  <!-- Mountain silhouette -->
  <polygon points="0,40 25,20 50,30 75,80 100,85 125,75 150,25 175,15 200,35 200,120 0,120" 
           fill="#4a5568"/>
  
  <!-- Mountain highlights -->
  <polygon points="25,20 35,10 45,25" fill="#6b7280"/>
  <polygon points="50,30 60,20 70,40" fill="#6b7280"/>
  <polygon points="125,75 135,65 145,70" fill="#6b7280"/>
  <polygon points="150,25 160,15 170,20" fill="#6b7280"/>
  <polygon points="175,15 185,5 195,20" fill="#6b7280"/>
  
  <!-- Snow caps -->
  <polygon points="23,20 27,15 31,20" fill="#e5e7eb"/>
  <polygon points="148,25 152,20 156,25" fill="#e5e7eb"/>
  <polygon points="173,15 177,10 181,15" fill="#e5e7eb"/>
  
  <!-- Valley shadows -->
  <polygon points="75,80 85,85 95,80" fill="#374151"/>
  <polygon points="100,85 110,90 120,85" fill="#374151"/>
</svg>
