<svg width="800" height="300" viewBox="0 0 800 300" xmlns="http://www.w3.org/2000/svg">
  <!-- Simple ancient ruins silhouette -->
  <defs>
    <linearGradient id="ruinsGradient" x1="0%" y1="0%" x2="0%" y2="100%">
      <stop offset="0%" style="stop-color:#6b7280;stop-opacity:0.8" />
      <stop offset="100%" style="stop-color:#374151;stop-opacity:1" />
    </linearGradient>
  </defs>
  
  <!-- Ruined structure outline -->
  <path d="M80,180 L100,180 L100,160 L105,160 L105,140 L110,140 L110,160 L130,160 L130,170 L150,170 L150,150 L155,150 L155,130 L160,130 L160,150 L180,150 L200,170 L220,170 L220,140 L225,140 L225,120 L230,120 L230,140 L250,140 L280,160 L300,160 L300,145 L320,145 L340,165 L360,165 L360,150 L365,150 L365,135 L370,135 L370,150 L390,150 L420,170 L450,170 L450,155 L480,155 L500,175 L520,175 L520,160 L525,160 L525,145 L530,145 L530,160 L550,160 L580,180 L600,180 L600,165 L620,165 L640,185 L680,185 L680,170 L700,170 L720,190 L750,190 L800,200 L800,300 L0,300 Z" 
        fill="url(#ruinsGradient)" opacity="0.7"/>
  
  <!-- Broken column details -->
  <rect x="108" y="120" width="2" height="40" fill="#4b5563" opacity="0.8"/>
  <rect x="158" y="110" width="2" height="40" fill="#4b5563" opacity="0.8"/>
  <rect x="228" y="100" width="2" height="40" fill="#4b5563" opacity="0.8"/>
  <rect x="368" y="115" width="2" height="35" fill="#4b5563" opacity="0.8"/>
  <rect x="528" y="125" width="2" height="35" fill="#4b5563" opacity="0.8"/>
  
  <!-- Scattered stones -->
  <ellipse cx="190" cy="200" rx="8" ry="3" fill="#4b5563" opacity="0.6"/>
  <ellipse cx="320" cy="210" rx="6" ry="2" fill="#4b5563" opacity="0.5"/>
  <ellipse cx="470" cy="205" rx="10" ry="4" fill="#4b5563" opacity="0.6"/>
  <ellipse cx="650" cy="215" rx="7" ry="3" fill="#4b5563" opacity="0.5"/>
  
  <!-- Atmospheric dust -->
  <ellipse cx="400" cy="230" rx="150" ry="10" fill="#9ca3af" opacity="0.3"/>
</svg>
