<svg width="800" height="300" viewBox="0 0 800 300" xmlns="http://www.w3.org/2000/svg">
  <!-- Simple village silhouette -->
  <defs>
    <linearGradient id="villageGradient" x1="0%" y1="0%" x2="0%" y2="100%">
      <stop offset="0%" style="stop-color:#4a5568;stop-opacity:0.8" />
      <stop offset="100%" style="stop-color:#2d3748;stop-opacity:1" />
    </linearGradient>
  </defs>
  
  <!-- Simple village outline -->
  <path d="M50,200 L80,200 L80,180 L120,180 L130,160 L140,180 L180,180 L180,170 L190,160 L200,170 L250,170 L250,150 L260,140 L270,150 L320,150 L320,160 L340,160 L350,140 L360,160 L400,160 L400,155 L420,155 L430,135 L440,155 L480,155 L480,175 L520,175 L520,165 L530,155 L540,165 L580,165 L580,180 L620,180 L620,170 L630,160 L640,170 L680,170 L680,185 L720,185 L720,190 L750,190 L800,200 L800,300 L0,300 Z" 
        fill="url(#villageGradient)" opacity="0.7"/>
  
  <!-- Simple building details -->
  <rect x="100" y="160" width="2" height="20" fill="#1a202c" opacity="0.6"/>
  <rect x="210" y="150" width="2" height="20" fill="#1a202c" opacity="0.6"/>
  <rect x="370" y="140" width="2" height="20" fill="#1a202c" opacity="0.6"/>
  <rect x="450" y="135" width="2" height="20" fill="#1a202c" opacity="0.6"/>
  <rect x="550" y="155" width="2" height="20" fill="#1a202c" opacity="0.6"/>
  
  <!-- Atmospheric haze -->
  <ellipse cx="400" cy="220" rx="200" ry="15" fill="#ffffff" opacity="0.2"/>
</svg>
