<svg width="24" height="24" viewBox="0 0 24 24" xmlns="http://www.w3.org/2000/svg">
  <defs>
    <!-- Main heart gradient - deeper reds -->
    <linearGradient id="heartBody" x1="0%" y1="0%" x2="100%" y2="100%">
      <stop offset="0%" style="stop-color:#ff4757;stop-opacity:1" />
      <stop offset="25%" style="stop-color:#ff3742;stop-opacity:1" />
      <stop offset="50%" style="stop-color:#e84142;stop-opacity:1" />
      <stop offset="75%" style="stop-color:#d63031;stop-opacity:1" />
      <stop offset="100%" style="stop-color:#b71c1c;stop-opacity:1" />
    </linearGradient>
    
    <!-- 3D highlight gradient -->
    <linearGradient id="highlight3D" x1="0%" y1="0%" x2="70%" y2="50%">
      <stop offset="0%" style="stop-color:#ffcccb;stop-opacity:0.95" />
      <stop offset="30%" style="stop-color:#ffb3b3;stop-opacity:0.8" />
      <stop offset="70%" style="stop-color:#ff9999;stop-opacity:0.4" />
      <stop offset="100%" style="stop-color:#ff8080;stop-opacity:0.1" />
    </linearGradient>
    
    <!-- Shadow gradient -->
    <linearGradient id="shadowGrad" x1="0%" y1="0%" x2="100%" y2="100%">
      <stop offset="0%" style="stop-color:#8b0000;stop-opacity:0.6" />
      <stop offset="100%" style="stop-color:#4a0000;stop-opacity:0.9" />
    </linearGradient>
    
    <!-- Glossy shine -->
    <radialGradient id="gloss" cx="30%" cy="20%" r="25%">
      <stop offset="0%" style="stop-color:#ffffff;stop-opacity:0.9" />
      <stop offset="40%" style="stop-color:#ffffff;stop-opacity:0.6" />
      <stop offset="80%" style="stop-color:#ffffff;stop-opacity:0.2" />
      <stop offset="100%" style="stop-color:#ffffff;stop-opacity:0" />
    </radialGradient>
    
    <!-- Inner glow -->
    <radialGradient id="innerGlow" cx="50%" cy="40%" r="60%">
      <stop offset="0%" style="stop-color:#ff6b7a;stop-opacity:0.3" />
      <stop offset="70%" style="stop-color:#ff4757;stop-opacity:0.1" />
      <stop offset="100%" style="stop-color:#ff4757;stop-opacity:0" />
    </radialGradient>
    
    <!-- Drop shadow filter -->
    <filter id="heartShadow" x="-50%" y="-50%" width="200%" height="200%">
      <feGaussianBlur in="SourceAlpha" stdDeviation="1.5"/>
      <feOffset dx="1.5" dy="2.5" result="offset"/>
      <feComponentTransfer>
        <feFuncA type="linear" slope="0.5"/>
      </feComponentTransfer>
      <feMerge> 
        <feMergeNode/>
        <feMergeNode in="SourceGraphic"/> 
      </feMerge>
    </filter>
    
    <!-- Emboss effect -->
    <filter id="emboss" x="-50%" y="-50%" width="200%" height="200%">
      <feGaussianBlur in="SourceAlpha" stdDeviation="0.5"/>
      <feSpecularLighting result="specOut" in="blur" specularConstant="1.5" specularExponent="20" lighting-color="#ffffff">
        <fePointLight x="5" y="5" z="20"/>
      </feSpecularLighting>
      <feComposite in="specOut" in2="SourceAlpha" operator="in" result="specOut2"/>
      <feComposite in="SourceGraphic" in2="specOut2" operator="arithmetic" k1="0" k2="1" k3="1" k4="0"/>
    </filter>
  </defs>
  
  <!-- Shadow -->
  <path d="M12.8 21.2c-0.2 0.1-0.4 0.1-0.6 0C10.8 20.1 3 14.2 3 8.5C3 5.5 5.5 3 8.5 3c1.7 0 3.2 0.7 4.2 1.8C13.8 3.7 15.3 3 17 3c3 0 5.5 2.5 5.5 5.5C22.5 14.2 14.7 20.1 12.8 21.2z" 
        fill="url(#shadowGrad)" 
        opacity="0.4"
        transform="translate(1, 1.5)"/>
  
  <!-- Main heart shape - anatomically correct heart -->
  <path d="M12.2 20.9c-0.2 0.1-0.4 0.1-0.6 0C10.2 19.8 2.5 13.9 2.5 8.2C2.5 5.2 5 2.7 8 2.7c1.7 0 3.2 0.7 4.2 1.8C13.3 3.4 14.8 2.7 16.5 2.7c3 0 5.5 2.5 5.5 5.5C22 13.9 14.3 19.8 12.2 20.9z" 
        fill="url(#heartBody)" 
        filter="url(#heartShadow)"/>
  
  <!-- Left chamber highlight -->
  <path d="M8 2.7c1.7 0 3.2 0.7 4.2 1.8c0.3-0.4 0.7-0.8 1.1-1.1C12.5 2.9 11.8 2.7 11 2.7c-0.9 0-1.8 0.2-2.6 0.6C7.2 3.6 6.1 4.8 5.5 6.2c-0.5 1.2-0.5 2.5-0.2 3.7c0.4 1.8 1.4 3.4 2.8 4.6c1.1 1 2.4 1.8 3.7 2.4c0.1-0.1 0.2-0.2 0.2-0.3C10.8 15.4 9.2 14 8.1 12.2c-1.1-1.8-1.6-3.9-1.3-6C6.9 5.2 7.4 3.9 8 2.7z" 
        fill="url(#highlight3D)" 
        opacity="0.8"/>
  
  <!-- Right chamber highlight -->
  <path d="M16.5 2.7c-1.7 0-3.2 0.7-4.2 1.8c-0.3-0.4-0.7-0.8-1.1-1.1C11.9 2.9 12.6 2.7 13.4 2.7c0.9 0 1.8 0.2 2.6 0.6c1.2 0.3 2.3 1.5 2.9 2.9c0.5 1.2 0.5 2.5 0.2 3.7c-0.4 1.8-1.4 3.4-2.8 4.6c-1.1 1-2.4 1.8-3.7 2.4c-0.1-0.1-0.2-0.2-0.2-0.3c1.2-1.2 2.8-2.6 3.9-4.4c1.1-1.8 1.6-3.9 1.3-6C17.5 5.2 17 3.9 16.5 2.7z" 
        fill="url(#highlight3D)" 
        opacity="0.6"/>
  
  <!-- Main glossy shine -->
  <ellipse cx="8.5" cy="6.5" rx="2.8" ry="2.2" 
           fill="url(#gloss)" 
           opacity="0.85"/>
  
  <!-- Secondary shine -->
  <ellipse cx="15.5" cy="7" rx="2.2" ry="1.8" 
           fill="url(#gloss)" 
           opacity="0.6"/>
  
  <!-- Bright highlight spots -->
  <circle cx="7.8" cy="6" r="0.8" 
          fill="#ffffff" 
          opacity="0.9"/>
  <circle cx="15" cy="6.8" r="0.6" 
          fill="#ffffff" 
          opacity="0.7"/>
  
  <!-- Inner glow overlay -->
  <path d="M12.2 20.4c-0.1 0.1-0.3 0.1-0.4 0C10.5 19.3 3.2 13.6 3.2 8.2C3.2 5.5 5.4 3.3 8.1 3.3c1.6 0 3 0.7 3.9 1.7C13 3.9 14.4 3.3 16 3.3c2.7 0 4.9 2.2 4.9 4.9C20.9 13.6 13.6 19.3 12.2 20.4z" 
        fill="url(#innerGlow)" 
        opacity="0.6"/>
  
  <!-- Subtle embossed edge -->
  <path d="M12.2 20.9c-0.2 0.1-0.4 0.1-0.6 0C10.2 19.8 2.5 13.9 2.5 8.2C2.5 5.2 5 2.7 8 2.7c1.7 0 3.2 0.7 4.2 1.8C13.3 3.4 14.8 2.7 16.5 2.7c3 0 5.5 2.5 5.5 5.5C22 13.9 14.3 19.8 12.2 20.9z" 
        fill="none" 
        stroke="rgba(255,255,255,0.3)" 
        stroke-width="0.3"/>

  <!-- RPG-style pulsing animation with swell effect -->
  <animateTransform attributeName="transform" 
                    type="scale" 
                    values="1;1.08;1.02;1.12;1" 
                    dur="1.8s" 
                    repeatCount="indefinite"/>
                    
  <animate attributeName="opacity" 
           values="0.9;1;0.95;1;0.9" 
           dur="1.8s" 
           repeatCount="indefinite"/>
           
  <!-- Gloss shine animation -->
  <animateTransform attributeName="transform" 
                    type="translate" 
                    values="0,0;1,0;0,0" 
                    dur="3s" 
                    repeatCount="indefinite"
                    begin="0s"/>
</svg>
