<svg width="24" height="24" viewBox="0 0 24 24" xmlns="http://www.w3.org/2000/svg">
  <defs>
    <!-- Gradient for main heart body -->
    <linearGradient id="heartGradient" x1="0%" y1="0%" x2="100%" y2="100%">
      <stop offset="0%" style="stop-color:#ff6b9d;stop-opacity:1" />
      <stop offset="30%" style="stop-color:#ff477e;stop-opacity:1" />
      <stop offset="70%" style="stop-color:#e91e63;stop-opacity:1" />
      <stop offset="100%" style="stop-color:#c2185b;stop-opacity:1" />
    </linearGradient>
    
    <!-- Gradient for 3D highlight -->
    <linearGradient id="heartHighlight" x1="0%" y1="0%" x2="60%" y2="40%">
      <stop offset="0%" style="stop-color:#ffcdd2;stop-opacity:0.9" />
      <stop offset="50%" style="stop-color:#f8bbd9;stop-opacity:0.6" />
      <stop offset="100%" style="stop-color:#f48fb1;stop-opacity:0.3" />
    </linearGradient>
    
    <!-- Gradient for shadow -->
    <linearGradient id="heartShadow" x1="0%" y1="0%" x2="100%" y2="100%">
      <stop offset="0%" style="stop-color:#ad1457;stop-opacity:0.8" />
      <stop offset="100%" style="stop-color:#880e4f;stop-opacity:1" />
    </linearGradient>
    
    <!-- Glossy shine effect -->
    <radialGradient id="heartShine" cx="35%" cy="25%" r="30%">
      <stop offset="0%" style="stop-color:#ffffff;stop-opacity:0.8" />
      <stop offset="70%" style="stop-color:#ffffff;stop-opacity:0.3" />
      <stop offset="100%" style="stop-color:#ffffff;stop-opacity:0" />
    </radialGradient>
    
    <!-- Drop shadow filter -->
    <filter id="dropShadow" x="-50%" y="-50%" width="200%" height="200%">
      <feGaussianBlur in="SourceAlpha" stdDeviation="1"/>
      <feOffset dx="1" dy="2" result="offset"/>
      <feComponentTransfer>
        <feFuncA type="linear" slope="0.4"/>
      </feComponentTransfer>
      <feMerge> 
        <feMergeNode/>
        <feMergeNode in="SourceGraphic"/> 
      </feMerge>
    </filter>
  </defs>
  
  <!-- Shadow layer for depth -->
  <path d="M12.5 21.5c-1.5-1.2-8.5-6.5-8.5-12.5C4 5.5 7.5 2 12 2s8 3.5 8 7c0 6-7 11.3-8.5 12.5z" 
        fill="url(#heartShadow)" 
        opacity="0.3"
        transform="translate(0.5, 0.5)"/>
  
  <!-- Main heart shape -->
  <path d="M12 21c-1.5-1.2-8-6.5-8-12C4 5.5 7.5 2 12 2s8 3.5 8 7c0 5.5-6.5 10.8-8 12z" 
        fill="url(#heartGradient)" 
        filter="url(#dropShadow)"/>
  
  <!-- 3D highlight on left side -->
  <path d="M12 21c-1.5-1.2-8-6.5-8-12C4 5.5 7.5 2 12 2c1.2 0 2.3 0.3 3.3 0.8C13.8 3.5 12.8 4.8 12.5 6.5c-0.3 2-0.5 4.2-0.5 6.5c0 3.2 0 6.2 0 8z" 
        fill="url(#heartHighlight)" 
        opacity="0.7"/>
  
  <!-- Glossy shine effect -->
  <ellipse cx="9.5" cy="7" rx="3" ry="2.5" 
           fill="url(#heartShine)" 
           opacity="0.9"/>
  
  <!-- Small highlight dot for extra gloss -->
  <circle cx="8.5" cy="6.5" r="1" 
          fill="#ffffff" 
          opacity="0.6"/>
          
  <!-- Subtle inner glow -->
  <path d="M12 20c-1.2-1-7-5.8-7-11C5 6.1 8.1 3 12 3s7 3.1 7 6c0 5.2-5.8 10-7 11z" 
        fill="none" 
        stroke="url(#heartHighlight)" 
        stroke-width="0.5" 
        opacity="0.4"/>

  <!-- Pulsing animation for health items -->
  <animate attributeName="opacity" 
           values="0.8;1;0.8" 
           dur="2s" 
           repeatCount="indefinite"/>
           
  <animateTransform attributeName="transform" 
                    type="scale" 
                    values="1;1.05;1" 
                    dur="2s" 
                    repeatCount="indefinite"/>
</svg>
