<svg width="32" height="32" viewBox="0 0 32 32" xmlns="http://www.w3.org/2000/svg" style="image-rendering: pixelated;">
  <!-- Magic potion base -->
  <rect x="8" y="20" width="16" height="10" fill="#2E1A47" stroke="#1A0E2E" stroke-width="1"/>
  
  <!-- Potion liquid (purple/blue magic) -->
  <rect x="9" y="21" width="14" height="8" fill="#7B2CBF"/>
  <rect x="10" y="22" width="12" height="6" fill="#9D4EDD"/>
  <rect x="11" y="23" width="10" height="4" fill="#C77DFF"/>
  
  <!-- Cork/stopper -->
  <rect x="12" y="18" width="8" height="3" fill="#8B4513" stroke="#654321" stroke-width="1"/>
  
  <!-- Magic sparkles -->
  <rect x="6" y="8" width="2" height="2" fill="#FFD700"/>
  <rect x="10" y="5" width="2" height="2" fill="#E0E0E0"/>
  <rect x="24" y="12" width="2" height="2" fill="#FFD700"/>
  <rect x="20" y="6" width="2" height="2" fill="#E0E0E0"/>
  <rect x="14" y="10" width="2" height="2" fill="#FFD700"/>
  
  <!-- Magic aura particles -->
  <rect x="5" y="16" width="1" height="1" fill="#C77DFF"/>
  <rect x="26" y="18" width="1" height="1" fill="#9D4EDD"/>
  <rect x="7" y="24" width="1" height="1" fill="#7B2CBF"/>
  <rect x="25" y="25" width="1" height="1" fill="#C77DFF"/>
  
  <!-- Potion highlight -->
  <rect x="10" y="22" width="2" height="3" fill="#E0AAFF"/>
  
  <!-- Label area (lighter rectangle) -->
  <rect x="11" y="24" width="10" height="3" fill="#3D2B5A"/>
  <rect x="12" y="25" width="8" height="1" fill="#5A4372"/>
</svg>
