<svg width="16" height="16" viewBox="0 0 16 16" xmlns="http://www.w3.org/2000/svg" style="image-rendering: pixelated;">
  <!-- Grass Platform Center Tile -->
  
  <!-- Grass top -->
  <rect x="0" y="0" width="16" height="4" fill="#32CD32"/>
  
  <!-- Grass blades -->
  <rect x="2" y="0" width="1" height="2" fill="#228B22"/>
  <rect x="5" y="0" width="1" height="3" fill="#228B22"/>
  <rect x="8" y="0" width="1" height="2" fill="#228B22"/>
  <rect x="11" y="0" width="1" height="3" fill="#228B22"/>
  <rect x="14" y="0" width="1" height="2" fill="#228B22"/>
  
  <!-- Earth/dirt -->
  <rect x="0" y="4" width="16" height="12" fill="#8B4513"/>
  
  <!-- Dirt texture -->
  <rect x="2" y="6" width="1" height="1" fill="#A0522D"/>
  <rect x="7" y="8" width="1" height="1" fill="#A0522D"/>
  <rect x="12" y="7" width="1" height="1" fill="#A0522D"/>
  <rect x="4" y="10" width="1" height="1" fill="#A0522D"/>
  <rect x="9" y="12" width="1" height="1" fill="#A0522D"/>
  <rect x="14" y="10" width="1" height="1" fill="#A0522D"/>
  
  <!-- Small rocks -->
  <rect x="3" y="9" width="1" height="1" fill="#696969"/>
  <rect x="10" y="6" width="1" height="1" fill="#696969"/>
  <rect x="13" y="12" width="1" height="1" fill="#696969"/>
</svg>
