<svg width="120" height="80" viewBox="0 0 120 80" xmlns="http://www.w3.org/2000/svg" style="image-rendering: pixelated;">
  <!-- Ancient Castle Silhouette -->
  
  <!-- Castle base -->
  <rect x="20" y="50" width="80" height="30" fill="#2d3748"/>
  
  <!-- Main towers -->
  <rect x="15" y="35" width="12" height="45" fill="#2d3748"/>
  <rect x="35" y="30" width="15" height="50" fill="#2d3748"/>
  <rect x="70" y="25" width="18" height="55" fill="#2d3748"/>
  <rect x="93" y="40" width="12" height="40" fill="#2d3748"/>
  
  <!-- Tower tops -->
  <polygon points="15,35 21,25 27,35" fill="#1a202c"/>
  <polygon points="35,30 42.5,18 50,30" fill="#1a202c"/>
  <polygon points="70,25 79,12 88,25" fill="#1a202c"/>
  <polygon points="93,40 99,32 105,40" fill="#1a202c"/>
  
  <!-- Castle walls -->
  <rect x="27" y="45" width="8" height="35" fill="#4a5568"/>
  <rect x="50" y="40" width="20" height="40" fill="#4a5568"/>
  
  <!-- Windows -->
  <rect x="37" y="35" width="2" height="3" fill="#1a202c"/>
  <rect x="42" y="38" width="2" height="3" fill="#1a202c"/>
  <rect x="75" y="30" width="2" height="3" fill="#1a202c"/>
  <rect x="80" y="33" width="2" height="3" fill="#1a202c"/>
  <rect x="55" y="45" width="2" height="3" fill="#1a202c"/>
  <rect x="62" y="48" width="2" height="3" fill="#1a202c"/>
  
  <!-- Flags -->
  <rect x="21" y="20" width="1" height="8" fill="#8b4513"/>
  <rect x="42" y="13" width="1" height="10" fill="#8b4513"/>
  <rect x="79" y="7" width="1" height="12" fill="#8b4513"/>
  
  <rect x="22" y="20" width="4" height="3" fill="#dc2626"/>
  <rect x="43" y="13" width="4" height="3" fill="#7c3aed"/>
  <rect x="80" y="7" width="4" height="3" fill="#059669"/>
</svg>
