<svg width="800" height="200" viewBox="0 0 800 200" xmlns="http://www.w3.org/2000/svg">
  <!-- Storm clouds -->
  <defs>
    <radialGradient id="stormCloudGradient" cx="50%" cy="30%" r="70%">
      <stop offset="0%" style="stop-color:#e0e0e0;stop-opacity:0.9" />
      <stop offset="50%" style="stop-color:#a0a0a0;stop-opacity:0.8" />
      <stop offset="100%" style="stop-color:#606060;stop-opacity:0.6" />
    </radialGradient>
  </defs>
  
  <!-- Large storm cloud formations -->
  <ellipse cx="150" cy="60" rx="80" ry="35" fill="url(#stormCloudGradient)"/>
  <ellipse cx="130" cy="50" rx="60" ry="25" fill="url(#stormCloudGradient)"/>
  <ellipse cx="170" cy="45" rx="50" ry="20" fill="url(#stormCloudGradient)"/>
  <ellipse cx="190" cy="55" rx="45" ry="18" fill="url(#stormCloudGradient)"/>
  
  <ellipse cx="400" cy="80" rx="90" ry="40" fill="url(#stormCloudGradient)"/>
  <ellipse cx="380" cy="70" rx="70" ry="30" fill="url(#stormCloudGradient)"/>
  <ellipse cx="420" cy="65" rx="60" ry="25" fill="url(#stormCloudGradient)"/>
  <ellipse cx="450" cy="75" rx="55" ry="22" fill="url(#stormCloudGradient)"/>
  
  <ellipse cx="650" cy="50" rx="75" ry="32" fill="url(#stormCloudGradient)"/>
  <ellipse cx="630" cy="40" rx="55" ry="22" fill="url(#stormCloudGradient)"/>
  <ellipse cx="670" cy="35" rx="45" ry="18" fill="url(#stormCloudGradient)"/>
  
  <!-- Dark cloud bottoms -->
  <ellipse cx="150" cy="85" rx="70" ry="15" fill="#606060" opacity="0.4"/>
  <ellipse cx="400" cy="110" rx="80" ry="18" fill="#606060" opacity="0.4"/>
  <ellipse cx="650" cy="75" rx="65" ry="12" fill="#606060" opacity="0.4"/>
  
  <!-- Lightning hints (subtle) -->
  <path d="M145,90 L148,100 L143,105 L150,115" stroke="#ffffff" stroke-width="1" opacity="0.3" fill="none"/>
  <path d="M395,115 L398,125 L393,130 L400,140" stroke="#ffffff" stroke-width="1" opacity="0.2" fill="none"/>
</svg>
