<svg width="180" height="100" viewBox="0 0 180 100" xmlns="http://www.w3.org/2000/svg" style="image-rendering: pixelated;">
  <!-- Mid-distance Mountain Layer - Variation 2 (mixed slopes) -->
  
  <!-- Mountain base -->
  <polygon points="0,30 20,15 45,25 70,70 95,45 120,60 145,20 165,35 180,50 180,100 0,100" 
           fill="#374151"/>
  
  <!-- Mountain faces -->
  <polygon points="20,15 30,5 40,20" fill="#4b5563"/>
  <polygon points="45,25 55,15 65,35" fill="#4b5563"/>
  <polygon points="95,45 105,35 115,50" fill="#4b5563"/>
  <polygon points="145,20 155,10 165,25" fill="#4b5563"/>
  
  <!-- Rocky details -->
  <rect x="25" y="20" width="2" height="3" fill="#6b7280"/>
  <rect x="50" y="30" width="2" height="2" fill="#6b7280"/>
  <rect x="100" y="50" width="2" height="3" fill="#6b7280"/>
  <rect x="150" y="25" width="2" height="2" fill="#6b7280"/>
  <rect x="170" y="40" width="2" height="3" fill="#6b7280"/>
  
  <!-- Snow patches -->
  <polygon points="18,15 22,10 26,15" fill="#f3f4f6"/>
  <polygon points="143,20 147,15 151,20" fill="#f3f4f6"/>
  
  <!-- Valley shadows -->
  <polygon points="70,70 80,75 90,70" fill="#2d3748"/>
</svg>
