<svg width="800" height="300" viewBox="0 0 800 300" xmlns="http://www.w3.org/2000/svg">
  <!-- Mountains with peaks in the center -->
  <defs>
    <linearGradient id="mountainGradient5" x1="0%" y1="0%" x2="0%" y2="100%">
      <stop offset="0%" style="stop-color:#5a6b7d;stop-opacity:1" />
      <stop offset="100%" style="stop-color:#3a4a5a;stop-opacity:1" />
    </linearGradient>
  </defs>
  
  <!-- Sky background -->
  <rect width="800" height="300" fill="#b6d7ff" opacity="0.5"/>
  
  <!-- Mountain silhouettes - valley shape -->
  <polygon points="0,200 100,180 200,160 300,120 400,80 500,120 600,160 700,180 800,200 800,300 0,300" 
           fill="url(#mountainGradient5)" opacity="0.9"/>
  
  <!-- Secondary layer -->
  <polygon points="0,220 80,200 180,180 280,140 400,100 520,140 620,180 720,200 800,220 800,300 0,300" 
           fill="url(#mountainGradient5)" opacity="0.7"/>
  
  <!-- Tertiary layer -->
  <polygon points="0,240 60,230 160,210 260,170 400,130 540,170 640,210 740,230 800,240 800,300 0,300" 
           fill="url(#mountainGradient5)" opacity="0.5"/>
  
  <!-- Snow caps on highest peaks -->
  <polygon points="350,80 400,50 450,80 400,80" fill="#ffffff" opacity="0.6"/>
  
  <!-- Atmospheric clouds -->
  <ellipse cx="150" cy="120" rx="40" ry="15" fill="#ffffff" opacity="0.4"/>
  <ellipse cx="650" cy="140" rx="35" ry="12" fill="#ffffff" opacity="0.3"/>
</svg>
