<svg width="800" height="300" viewBox="0 0 800 300" xmlns="http://www.w3.org/2000/svg">
  <!-- Jagged mountain peaks -->
  <defs>
    <linearGradient id="mountainGradient8" x1="0%" y1="0%" x2="0%" y2="100%">
      <stop offset="0%" style="stop-color:#7c8a9f;stop-opacity:1" />
      <stop offset="100%" style="stop-color:#5c6a7f;stop-opacity:1" />
    </linearGradient>
  </defs>
  
  <!-- Sky background -->
  <rect width="800" height="300" fill="#b8d0f0" opacity="0.4"/>
  
  <!-- Jagged mountain silhouettes -->
  <polygon points="0,140 50,120 80,100 120,110 150,90 180,100 220,80 250,90 280,110 320,95 360,105 400,85 440,95 480,110 520,90 560,100 600,120 640,105 680,115 720,130 800,125 800,300 0,300" 
           fill="url(#mountainGradient8)" opacity="0.9"/>
  
  <!-- Sharp ridges -->
  <polygon points="70,100 85,85 100,100 80,100" fill="#5c6a7f" opacity="0.8"/>
  <polygon points="140,90 155,75 170,90 150,90" fill="#5c6a7f" opacity="0.8"/>
  <polygon points="210,80 225,65 240,80 220,80" fill="#5c6a7f" opacity="0.8"/>
  <polygon points="390,85 405,70 420,85 400,85" fill="#5c6a7f" opacity="0.8"/>
  <polygon points="510,90 525,75 540,90 520,90" fill="#5c6a7f" opacity="0.8"/>
  
  <!-- Rock formations -->
  <polygon points="100,110 110,105 120,110 110,115" fill="#4a5568" opacity="0.7"/>
  <polygon points="300,110 310,105 320,110 310,115" fill="#4a5568" opacity="0.7"/>
  <polygon points="470,110 480,105 490,110 480,115" fill="#4a5568" opacity="0.7"/>
</svg>
