<svg width="32" height="32" viewBox="0 0 32 32" xmlns="http://www.w3.org/2000/svg" style="image-rendering: pixelated;">
  <!-- Head (collapsed on ground) -->
  <rect x="20" y="18" width="10" height="8" fill="#8B0000" stroke="#5D0000" stroke-width="1"/>
  
  <!-- Eyes (X'd out) -->
  <rect x="22" y="20" width="1" height="1" fill="#000000"/>
  <rect x="24" y="22" width="1" height="1" fill="#000000"/>
  <rect x="23" y="21" width="1" height="1" fill="#000000"/>
  <rect x="26" y="20" width="1" height="1" fill="#000000"/>
  <rect x="28" y="22" width="1" height="1" fill="#000000"/>
  <rect x="27" y="21" width="1" height="1" fill="#000000"/>
  
  <!-- Mouth (open, tongue hanging out) -->
  <rect x="24" y="23" width="4" height="2" fill="#000000"/>
  <rect x="25" y="24" width="2" height="1" fill="#FF6B6B"/>
  <rect x="24" y="25" width="3" height="1" fill="#FF6B6B"/> <!-- tongue -->
  
  <!-- Body (sprawled) -->
  <rect x="2" y="20" width="20" height="10" fill="#A0522D" stroke="#8B4513" stroke-width="1"/>
  
  <!-- Wings (spread out, lifeless) -->
  <rect x="0" y="14" width="12" height="20" fill="#654321"/>
  <rect x="18" y="12" width="14" height="22" fill="#654321"/>
  
  <!-- Legs (sprawled out) -->
  <rect x="6" y="28" width="6" height="4" fill="#8B0000"/>
  <rect x="14" y="28" width="8" height="4" fill="#8B0000"/>
  
  <!-- Tail (limp) -->
  <rect x="2" y="26" width="8" height="3" fill="#A0522D"/>
  <rect x="0" y="27" width="4" height="2" fill="#8B4513"/>
  
  <!-- Death effects (soul/spirit leaving) -->
  <rect x="22" y="8" width="3" height="3" fill="#E0E0E0"/>
  <rect x="26" y="4" width="3" height="3" fill="#C0C0C0"/>
  <rect x="29" y="2" width="2" height="2" fill="#E0E0E0"/>
  <rect x="20" y="6" width="2" height="2" fill="#F0F0F0"/>
  <rect x="24" y="10" width="2" height="2" fill="#D0D0D0"/>
  <rect x="28" y="6" width="1" height="1" fill="#E0E0E0"/>
  
  <!-- Blood pools -->
  <rect x="16" y="28" width="4" height="2" fill="#8B0000"/>
  <rect x="12" y="26" width="3" height="1" fill="#8B0000"/>
  <rect x="8" y="30" width="2" height="2" fill="#8B0000"/>
  <rect x="22" y="24" width="2" height="1" fill="#8B0000"/>
  
  <!-- Smoke/breath fading -->
  <rect x="26" y="12" width="2" height="2" fill="#696969"/>
  <rect x="28" y="10" width="2" height="2" fill="#808080"/>
  <rect x="30" y="8" width="1" height="1" fill="#A9A9A9"/>
</svg>
