<svg width="32" height="32" viewBox="0 0 32 32" xmlns="http://www.w3.org/2000/svg" style="image-rendering: pixelated;">
  <!-- Head (recoiling, tilted back) -->
  <rect x="18" y="6" width="12" height="10" fill="#8B0000" stroke="#5D0000" stroke-width="1"/>
  
  <!-- Eyes (squinting in pain) -->
  <rect x="21" y="9" width="2" height="1" fill="#FFD700"/>
  <rect x="25" y="9" width="2" height="1" fill="#FFD700"/>
  
  <!-- Nostrils (flaring) -->
  <rect x="22" y="12" width="1" height="1" fill="#000000"/>
  <rect x="24" y="12" width="1" height="1" fill="#000000"/>
  
  <!-- Mouth (roaring in pain) -->
  <rect x="20" y="14" width="6" height="3" fill="#000000"/>
  <rect x="21" y="15" width="4" height="1" fill="#FF4500"/>
  
  <!-- Fangs -->
  <rect x="21" y="16" width="1" height="2" fill="#F5F5DC"/>
  <rect x="24" y="16" width="1" height="2" fill="#F5F5DC"/>
  
  <!-- Body (large, recoiling) -->
  <rect x="4" y="16" width="24" height="12" fill="#A0522D" stroke="#8B4513" stroke-width="1"/>
  
  <!-- Wings (flapping wildly) -->
  <rect x="0" y="12" width="8" height="16" fill="#654321"/>
  <rect x="24" y="10" width="8" height="18" fill="#654321"/>
  
  <!-- Legs (clawing) -->
  <rect x="8" y="28" width="4" height="4" fill="#8B0000"/>
  <rect x="20" y="28" width="4" height="4" fill="#8B0000"/>
  
  <!-- Claws -->
  <rect x="7" y="30" width="1" height="2" fill="#2F2F2F"/>
  <rect x="9" y="30" width="1" height="2" fill="#2F2F2F"/>
  <rect x="11" y="30" width="1" height="2" fill="#2F2F2F"/>
  <rect x="19" y="30" width="1" height="2" fill="#2F2F2F"/>
  <rect x="21" y="30" width="1" height="2" fill="#2F2F2F"/>
  <rect x="23" y="30" width="1" height="2" fill="#2F2F2F"/>
  
  <!-- Hit effect sparkles -->
  <rect x="2" y="6" width="2" height="2" fill="#FFD700"/>
  <rect x="30" y="4" width="2" height="2" fill="#FF6B6B"/>
  <rect x="14" y="8" width="2" height="2" fill="#FFA500"/>
  <rect x="28" y="14" width="2" height="2" fill="#FF6B6B"/>
  
  <!-- Pain/anger indicators -->
  <rect x="16" y="2" width="1" height="1" fill="#FF0000"/>
  <rect x="30" y="8" width="1" height="1" fill="#FF0000"/>
  <rect x="2" y="10" width="1" height="1" fill="#FF0000"/>
</svg>
