<svg width="32" height="40" viewBox="0 0 32 40" xmlns="http://www.w3.org/2000/svg" style="image-rendering: pixelated;">
  <!-- Orc Hit State - recoiling from damage -->
  
  <!-- Base head shape (tilted back from impact) -->
  <rect x="9" y="6" width="16" height="14" fill="#2D5A2D"/>
  <rect x="7" y="8" width="20" height="10" fill="#2D5A2D"/>
  
  <!-- Head shading (pain expression) -->
  <rect x="10" y="7" width="14" height="12" fill="#3A6B3A"/>
  <rect x="11" y="8" width="12" height="10" fill="#4A7C4A"/>
  
  <!-- Highlight on forehead -->
  <rect x="13" y="8" width="8" height="2" fill="#5A8B5A"/>
  
  <!-- Tusks -->
  <rect x="11" y="14" width="2" height="4" fill="#F5F5DC"/>
  <rect x="21" y="14" width="2" height="4" fill="#F5F5DC"/>
  <rect x="11" y="15" width="2" height="2" fill="#FFFFFF"/>
  <rect x="21" y="15" width="2" height="2" fill="#FFFFFF"/>
  
  <!-- Eyes (X'd out from pain) -->
  <rect x="12" y="10" width="3" height="2" fill="#8B0000"/>
  <rect x="17" y="10" width="3" height="2" fill="#8B0000"/>
  <rect x="12" y="10" width="1" height="1" fill="#000000"/>
  <rect x="14" y="11" width="1" height="1" fill="#000000"/>
  <rect x="17" y="10" width="1" height="1" fill="#000000"/>
  <rect x="19" y="11" width="1" height="1" fill="#000000"/>
  
  <!-- Nose -->
  <rect x="15" y="12" width="2" height="2" fill="#1A3A1A"/>
  
  <!-- Mouth (grimacing in pain) -->
  <rect x="13" y="14" width="6" height="2" fill="#000000"/>
  <rect x="14" y="15" width="4" height="1" fill="#8B0000"/>
  
  <!-- Neck -->
  <rect x="13" y="20" width="8" height="3" fill="#2D5A2D"/>
  <rect x="14" y="21" width="6" height="2" fill="#3A6B3A"/>
  
  <!-- Torso (pushed back) -->
  <rect x="7" y="23" width="16" height="12" fill="#654321"/>
  <rect x="5" y="25" width="20" height="8" fill="#654321"/>
  
  <!-- Armor/clothing details -->
  <rect x="9" y="24" width="12" height="8" fill="#8B4513"/>
  <rect x="10" y="25" width="10" height="6" fill="#A0522D"/>
  
  <!-- Armor studs -->
  <rect x="11" y="26" width="1" height="1" fill="#C0C0C0"/>
  <rect x="14" y="26" width="1" height="1" fill="#C0C0C0"/>
  <rect x="17" y="26" width="1" height="1" fill="#C0C0C0"/>
  
  <!-- Arms (recoiling) -->
  <rect x="1" y="21" width="6" height="10" fill="#2D5A2D"/>
  <rect x="25" y="23" width="6" height="10" fill="#2D5A2D"/>
  <rect x="2" y="22" width="4" height="8" fill="#3A6B3A"/>
  <rect x="26" y="24" width="4" height="8" fill="#3A6B3A"/>
  
  <!-- Hands/claws -->
  <rect x="1" y="31" width="6" height="4" fill="#2D5A2D"/>
  <rect x="25" y="33" width="6" height="4" fill="#2D5A2D"/>
  
  <!-- Legs (staggered) -->
  <rect x="9" y="35" width="5" height="5" fill="#2D5A2D"/>
  <rect x="18" y="35" width="5" height="5" fill="#2D5A2D"/>
  
  <!-- Impact effect -->
  <rect x="4" y="8" width="2" height="2" fill="#FFD700"/>
  <rect x="26" y="12" width="2" height="2" fill="#FF6B6B"/>
  <rect x="24" y="16" width="2" height="2" fill="#FFA500"/>
  <rect x="6" y="14" width="2" height="2" fill="#FF6B6B"/>
  
  <!-- Pain sparks -->
  <rect x="8" y="6" width="1" height="1" fill="#FF0000"/>
  <rect x="23" y="7" width="1" height="1" fill="#FF0000"/>
  <rect x="25" y="18" width="1" height="1" fill="#FF0000"/>
</svg>
