<svg width="32" height="32" viewBox="0 0 32 32" xmlns="http://www.w3.org/2000/svg" style="image-rendering: pixelated;">
  <!-- Shadow/base -->
  <ellipse cx="16" cy="28" rx="12" ry="3" fill="#000000" opacity="0.3"/>
  
  <!-- Body (collapsed on ground) -->
  <rect x="6" y="20" width="20" height="8" fill="#4A5D23" stroke="#3D4F1D" stroke-width="1"/>
  <rect x="7" y="21" width="18" height="6" fill="#5A6D33"/>
  
  <!-- Chest plate/armor (cracked) -->
  <rect x="8" y="20" width="16" height="5" fill="#2C2C2C" stroke="#1A1A1A" stroke-width="1"/>
  <rect x="9" y="21" width="14" height="3" fill="#3C3C3C"/>
  <!-- Crack in armor -->
  <rect x="15" y="20" width="2" height="5" fill="#1A1A1A"/>
  <rect x="12" y="22" width="8" height="1" fill="#1A1A1A"/>
  
  <!-- Head (laying on side, detailed) -->
  <rect x="20" y="16" width="10" height="8" fill="#6B4423" stroke="#4A2C17" stroke-width="1"/>
  <rect x="21" y="17" width="8" height="6" fill="#8B5A3C"/>
  <!-- Forehead ridge -->
  <rect x="22" y="17" width="6" height="2" fill="#7A4935"/>
  
  <!-- Tusks (broken) -->
  <rect x="19" y="20" width="2" height="3" fill="#F5F5DC"/>
  <rect x="21" y="22" width="1" height="1" fill="#D3D3D3"/>
  <!-- Broken tusk piece -->
  <rect x="17" y="24" width="2" height="1" fill="#F5F5DC"/>
  
  <!-- Eyes (X'd out, detailed) -->
  <rect x="23" y="19" width="2" height="2" fill="#8B0000"/>
  <rect x="23" y="19" width="1" height="1" fill="#FF0000"/>
  <rect x="24" y="20" width="1" height="1" fill="#FF0000"/>
  <rect x="24" y="19" width="1" height="1" fill="#8B0000"/>
  <rect x="23" y="20" width="1" height="1" fill="#8B0000"/>
  
  <rect x="26" y="19" width="2" height="2" fill="#8B0000"/>
  <rect x="26" y="19" width="1" height="1" fill="#FF0000"/>
  <rect x="27" y="20" width="1" height="1" fill="#FF0000"/>
  <rect x="27" y="19" width="1" height="1" fill="#8B0000"/>
  <rect x="26" y="20" width="1" height="1" fill="#8B0000"/>
  
  <!-- Mouth (open, tongue lolling) -->
  <rect x="24" y="22" width="4" height="2" fill="#000000"/>
  <rect x="25" y="23" width="2" height="1" fill="#8B0000"/>
  <!-- Tongue -->
  <rect x="24" y="24" width="3" height="1" fill="#CD5C5C"/>
  
  <!-- Arms (sprawled out, detailed) -->
  <!-- Left arm -->
  <rect x="2" y="18" width="8" height="4" fill="#6B4423"/>
  <rect x="3" y="19" width="6" height="2" fill="#8B5A3C"/>
  <!-- Shoulder armor -->
  <rect x="8" y="18" width="3" height="4" fill="#2C2C2C"/>
  <rect x="9" y="19" width="1" height="2" fill="#3C3C3C"/>
  <!-- Hand -->
  <rect x="0" y="19" width="3" height="3" fill="#6B4423"/>
  <rect x="1" y="20" width="1" height="1" fill="#8B5A3C"/>
  
  <!-- Right arm (partially under body) -->
  <rect x="24" y="24" width="6" height="3" fill="#6B4423"/>
  <rect x="25" y="25" width="4" height="1" fill="#8B5A3C"/>
  
  <!-- Legs (sprawled) -->
  <rect x="4" y="28" width="8" height="4" fill="#6B4423"/>
  <rect x="5" y="29" width="6" height="2" fill="#8B5A3C"/>
  <rect x="16" y="28" width="10" height="4" fill="#6B4423"/>
  <rect x="17" y="29" width="8" height="2" fill="#8B5A3C"/>
  
  <!-- Boots -->
  <rect x="2" y="30" width="4" height="2" fill="#2C2C2C"/>
  <rect x="26" y="30" width="4" height="2" fill="#2C2C2C"/>
  
  <!-- Death effects (soul/spirit particles) -->
  <rect x="22" y="8" width="2" height="2" fill="#E0E0E0" opacity="0.8"/>
  <rect x="25" y="5" width="2" height="2" fill="#C0C0C0" opacity="0.7"/>
  <rect x="28" y="3" width="2" height="2" fill="#E0E0E0" opacity="0.6"/>
  <rect x="20" y="6" width="1" height="1" fill="#F0F0F0" opacity="0.9"/>
  <rect x="24" y="10" width="1" height="1" fill="#D0D0D0" opacity="0.8"/>
  <rect x="27" y="7" width="1" height="1" fill="#E0E0E0" opacity="0.7"/>
  <rect x="26" y="9" width="1" height="1" fill="#E0E0E0" opacity="0.6"/>
  
  <!-- Blood pool -->
  <rect x="18" y="26" width="6" height="2" fill="#8B0000"/>
  <rect x="19" y="27" width="4" height="1" fill="#CD5C5C"/>
  <rect x="16" y="25" width="3" height="2" fill="#8B0000"/>
  <rect x="14" y="28" width="2" height="2" fill="#8B0000"/>
  
  <!-- Weapon dropped -->
  <rect x="12" y="16" width="1" height="6" fill="#8B4513"/>
  <rect x="11" y="15" width="3" height="2" fill="#696969"/>
  <rect x="10" y="16" width="1" height="1" fill="#A9A9A9"/>
</svg>
