<svg width="32" height="40" viewBox="0 0 32 40" xmlns="http://www.w3.org/2000/svg" style="image-rendering: pixelated;">
  <!-- Fierce Orc Warrior - Classic RPG 8-bit style with proper shading -->
  
  <!-- Base head shape (larger, more imposing) -->
  <rect x="8" y="4" width="16" height="14" fill="#2D5A2D"/>
  <rect x="6" y="6" width="20" height="10" fill="#2D5A2D"/>
  
  <!-- Head shading (darker green for depth) -->
  <rect x="9" y="5" width="14" height="12" fill="#3A6B3A"/>
  <rect x="10" y="6" width="12" height="10" fill="#4A7C4A"/>
  
  <!-- Highlight on forehead -->
  <rect x="12" y="6" width="8" height="2" fill="#5A8B5A"/>
  
  <!-- Tusks (iconic orc feature) -->
  <rect x="10" y="12" width="2" height="4" fill="#F5F5DC"/>
  <rect x="20" y="12" width="2" height="4" fill="#F5F5DC"/>
  <rect x="10" y="13" width="2" height="2" fill="#FFFFFF"/>
  <rect x="20" y="13" width="2" height="2" fill="#FFFFFF"/>
  
  <!-- Eyes (red and menacing) -->
  <rect x="12" y="8" width="3" height="2" fill="#8B0000"/>
  <rect x="17" y="8" width="3" height="2" fill="#8B0000"/>
  <rect x="13" y="8" width="1" height="1" fill="#FF0000"/>
  <rect x="18" y="8" width="1" height="1" fill="#FF0000"/>
  
  <!-- Nose (broad and flat) -->
  <rect x="15" y="10" width="2" height="2" fill="#1A3A1A"/>
  
  <!-- Mouth (snarling) -->
  <rect x="13" y="12" width="6" height="2" fill="#000000"/>
  <rect x="14" y="13" width="4" height="1" fill="#8B0000"/>
  
  <!-- Neck -->
  <rect x="12" y="18" width="8" height="3" fill="#2D5A2D"/>
  <rect x="13" y="19" width="6" height="2" fill="#3A6B3A"/>
  
  <!-- Muscular torso -->
  <rect x="8" y="21" width="16" height="12" fill="#654321"/>
  <rect x="6" y="23" width="20" height="8" fill="#654321"/>
  
  <!-- Armor/clothing details -->
  <rect x="10" y="22" width="12" height="8" fill="#8B4513"/>
  <rect x="11" y="23" width="10" height="6" fill="#A0522D"/>
  
  <!-- Armor studs -->
  <rect x="12" y="24" width="1" height="1" fill="#C0C0C0"/>
  <rect x="15" y="24" width="1" height="1" fill="#C0C0C0"/>
  <rect x="18" y="24" width="1" height="1" fill="#C0C0C0"/>
  
  <!-- Arms (massive and muscular) -->
  <rect x="2" y="21" width="6" height="10" fill="#2D5A2D"/>
  <rect x="24" y="21" width="6" height="10" fill="#2D5A2D"/>
  <rect x="3" y="22" width="4" height="8" fill="#3A6B3A"/>
  <rect x="25" y="22" width="4" height="8" fill="#3A6B3A"/>
  
  <!-- Arm highlights -->
  <rect x="4" y="22" width="2" height="2" fill="#4A7C4A"/>
  <rect x="26" y="22" width="2" height="2" fill="#4A7C4A"/>
  
  <!-- Hands/claws -->
  <rect x="2" y="31" width="6" height="4" fill="#2D5A2D"/>
  <rect x="24" y="31" width="6" height="4" fill="#2D5A2D"/>
  <rect x="3" y="32" width="4" height="2" fill="#3A6B3A"/>
  <rect x="25" y="32" width="4" height="2" fill="#3A6B3A"/>
  
  <!-- Claws -->
  <rect x="2" y="35" width="1" height="2" fill="#FFFACD"/>
  <rect x="4" y="35" width="1" height="2" fill="#FFFACD"/>
  <rect x="6" y="35" width="1" height="2" fill="#FFFACD"/>
  <rect x="25" y="35" width="1" height="2" fill="#FFFACD"/>
  <rect x="27" y="35" width="1" height="2" fill="#FFFACD"/>
  <rect x="29" y="35" width="1" height="2" fill="#FFFACD"/>
  
  <!-- Legs -->
  <rect x="10" y="33" width="5" height="7" fill="#2D5A2D"/>
  <rect x="17" y="33" width="5" height="7" fill="#2D5A2D"/>
  <rect x="11" y="34" width="3" height="5" fill="#3A6B3A"/>
  <rect x="18" y="34" width="3" height="5" fill="#3A6B3A"/>
  
  <!-- Boots (heavy and studded) -->
  <rect x="9" y="38" width="6" height="2" fill="#2F4F2F"/>
  <rect x="17" y="38" width="6" height="2" fill="#2F4F2F"/>
  <rect x="10" y="38" width="4" height="1" fill="#C0C0C0"/>
  <rect x="18" y="38" width="4" height="1" fill="#C0C0C0"/>
</svg>
