<svg width="32" height="32" viewBox="0 0 32 32" xmlns="http://www.w3.org/2000/svg" style="image-rendering: pixelated;">
  <!-- Shadow/base -->
  <ellipse cx="16" cy="28" rx="12" ry="3" fill="#000000" opacity="0.3"/>
  
  <!-- Skull (cracked and fallen, detailed) -->
  <rect x="18" y="18" width="12" height="10" fill="#F5F5DC" stroke="#D3D3D3" stroke-width="1"/>
  <rect x="19" y="19" width="10" height="8" fill="#FFFAF0"/>
  
  <!-- Skull details -->
  <rect x="20" y="19" width="8" height="2" fill="#E6E6FA"/>
  <rect x="21" y="25" width="6" height="2" fill="#E6E6FA"/>
  
  <!-- Major crack in skull -->
  <rect x="22" y="18" width="1" height="10" fill="#696969"/>
  <rect x="21" y="20" width="3" height="1" fill="#696969"/>
  <rect x="25" y="22" width="2" height="1" fill="#696969"/>
  <rect x="24" y="24" width="3" height="1" fill="#696969"/>
  <!-- Crack fragments -->
  <rect x="23" y="17" width="1" height="1" fill="#D3D3D3"/>
  <rect x="26" y="19" width="1" height="1" fill="#D3D3D3"/>
  
  <!-- Eye sockets (dark/empty with detail) -->
  <rect x="20" y="21" width="3" height="3" fill="#000000"/>
  <rect x="21" y="22" width="1" height="1" fill="#2F2F2F"/>
  <rect x="26" y="21" width="3" height="3" fill="#000000"/>
  <rect x="27" y="22" width="1" height="1" fill="#2F2F2F"/>
  
  <!-- Nasal cavity -->
  <rect x="23" y="23" width="2" height="2" fill="#696969"/>
  <rect x="24" y="24" width="1" height="1" fill="#000000"/>
  
  <!-- Jaw (detached and broken) -->
  <rect x="21" y="26" width="6" height="2" fill="#E0E0E0"/>
  <rect x="22" y="27" width="4" height="1" fill="#F5F5DC"/>
  <!-- Missing teeth -->
  <rect x="23" y="26" width="1" height="1" fill="#696969"/>
  <rect x="25" y="26" width="1" height="1" fill="#696969"/>
  <!-- Broken jaw piece -->
  <rect x="28" y="27" width="2" height="1" fill="#E0E0E0"/>
  
  <!-- Scattered ribs (detailed) -->
  <rect x="6" y="22" width="10" height="3" fill="#F5F5DC" stroke="#D3D3D3" stroke-width="1"/>
  <rect x="7" y="23" width="8" height="1" fill="#FFFAF0"/>
  <rect x="8" y="20" width="6" height="2" fill="#F5F5DC"/>
  <rect x="9" y="21" width="4" height="1" fill="#FFFAF0"/>
  <rect x="10" y="26" width="5" height="2" fill="#F5F5DC"/>
  <rect x="11" y="27" width="3" height="1" fill="#FFFAF0"/>
  
  <!-- Scattered arm bones (detailed) -->
  <!-- Left arm bones -->
  <rect x="2" y="16" width="8" height="3" fill="#F5F5DC" stroke="#D3D3D3" stroke-width="1"/>
  <rect x="3" y="17" width="6" height="1" fill="#FFFAF0"/>
  <!-- Hand bones -->
  <rect x="0" y="18" width="3" height="2" fill="#F5F5DC"/>
  <rect x="1" y="19" width="1" height="1" fill="#FFFAF0"/>
  <!-- Finger bones scattered -->
  <rect x="0" y="21" width="1" height="1" fill="#E0E0E0"/>
  <rect x="2" y="22" width="1" height="1" fill="#E0E0E0"/>
  <rect x="4" y="20" width="1" height="1" fill="#E0E0E0"/>
  
  <!-- Right arm bones -->
  <rect x="24" y="14" width="6" height="3" fill="#F5F5DC"/>
  <rect x="25" y="15" width="4" height="1" fill="#FFFAF0"/>
  <rect x="14" y="18" width="4" height="3" fill="#F5F5DC"/>
  <rect x="15" y="19" width="2" height="1" fill="#FFFAF0"/>
  
  <!-- Scattered leg bones (detailed) -->
  <rect x="4" y="28" width="8" height="4" fill="#F5F5DC" stroke="#D3D3D3" stroke-width="1"/>
  <rect x="5" y="29" width="6" height="2" fill="#FFFAF0"/>
  <rect x="12" y="30" width="10" height="2" fill="#F5F5DC"/>
  <rect x="13" y="31" width="8" height="1" fill="#FFFAF0"/>
  <rect x="22" y="28" width="6" height="3" fill="#F5F5DC"/>
  <rect x="23" y="29" width="4" height="1" fill="#FFFAF0"/>
  
  <!-- Spine pieces (detailed vertebrae) -->
  <rect x="14" y="22" width="3" height="6" fill="#F5F5DC" stroke="#D3D3D3" stroke-width="1"/>
  <rect x="15" y="23" width="1" height="4" fill="#FFFAF0"/>
  <rect x="15" y="21" width="1" height="1" fill="#E0E0E0"/>
  <rect x="15" y="25" width="1" height="1" fill="#E0E0E0"/>
  <rect x="15" y="27" width="1" height="1" fill="#E0E0E0"/>
  
  <!-- Individual vertebrae scattered -->
  <rect x="12" y="24" width="1" height="1" fill="#E0E0E0"/>
  <rect x="17" y="26" width="1" height="1" fill="#E0E0E0"/>
  <rect x="13" y="28" width="1" height="1" fill="#E0E0E0"/>
  
  <!-- Death effects (ghostly particles, enhanced) -->
  <rect x="20" y="10" width="3" height="3" fill="#E0E0E0" opacity="0.8"/>
  <rect x="21" y="11" width="1" height="1" fill="#F0F0F0" opacity="0.9"/>
  <rect x="24" y="6" width="3" height="3" fill="#C0C0C0" opacity="0.7"/>
  <rect x="25" y="7" width="1" height="1" fill="#E0E0E0" opacity="0.8"/>
  <rect x="28" y="4" width="2" height="2" fill="#E0E0E0" opacity="0.6"/>
  <rect x="18" y="8" width="2" height="2" fill="#F0F0F0" opacity="0.7"/>
  <rect x="22" y="12" width="1" height="1" fill="#D0D0D0" opacity="0.8"/>
  <rect x="26" y="9" width="1" height="1" fill="#E0E0E0" opacity="0.7"/>
  <rect x="29" y="7" width="1" height="1" fill="#F0F0F0" opacity="0.6"/>
  
  <!-- Soul wisps -->
  <rect x="19" y="12" width="1" height="1" fill="#E0E0E0" opacity="0.9"/>
  <rect x="23" y="14" width="1" height="1" fill="#F0F0F0" opacity="0.8"/>
  <rect x="27" y="11" width="1" height="1" fill="#E0E0E0" opacity="0.7"/>
  
  <!-- Bone dust scattered around (enhanced) -->
  <rect x="8" y="18" width="1" height="1" fill="#E0E0E0"/>
  <rect x="16" y="16" width="1" height="1" fill="#E0E0E0"/>
  <rect x="26" y="24" width="1" height="1" fill="#E0E0E0"/>
  <rect x="12" y="26" width="1" height="1" fill="#E0E0E0"/>
  <rect x="6" y="25" width="1" height="1" fill="#E0E0E0"/>
  <rect x="18" y="30" width="1" height="1" fill="#E0E0E0"/>
  <rect x="30" y="26" width="1" height="1" fill="#E0E0E0"/>
  <rect x="10" y="20" width="1" height="1" fill="#E0E0E0"/>
  <rect x="20" y="28" width="1" height="1" fill="#E0E0E0"/>
</svg>
