<svg width="32" height="48" viewBox="0 0 32 48" xmlns="http://www.w3.org/2000/svg" style="image-rendering: pixelated;">
  <!-- Amazonian Warrior Attacking - matching idle character -->
  
  <!-- Hair (flowing with motion) -->
  <rect x="10" y="4" width="12" height="8" fill="#2B1810"/>
  <rect x="8" y="6" width="2" height="6" fill="#2B1810"/>
  <rect x="22" y="6" width="2" height="6" fill="#2B1810"/>
  
  <!-- Face (fierce concentration) -->
  <rect x="10" y="8" width="12" height="8" fill="#CD853F"/>
  <rect x="8" y="10" width="2" height="4" fill="#CD853F"/>
  <rect x="22" y="10" width="2" height="4" fill="#CD853F"/>
  
  <!-- Eyes (focused on target) -->
  <rect x="12" y="10" width="2" height="2" fill="#000000"/>
  <rect x="18" y="10" width="2" height="2" fill="#000000"/>
  
  <!-- Nose -->
  <rect x="15" y="12" width="2" height="1" fill="#B8860B"/>
  
  <!-- Mouth (gritted teeth) -->
  <rect x="14" y="14" width="4" height="1" fill="#8B4513"/>
  
  <!-- Neck -->
  <rect x="12" y="16" width="8" height="2" fill="#CD853F"/>
  
  <!-- Tribal Top (same style) -->
  <rect x="10" y="18" width="12" height="8" fill="#8B4513"/>
  <rect x="8" y="20" width="2" height="4" fill="#8B4513"/>
  <rect x="22" y="20" width="2" height="4" fill="#8B4513"/>
  
  <!-- Tribal decorations -->
  <rect x="12" y="20" width="2" height="2" fill="#DAA520"/>
  <rect x="18" y="20" width="2" height="2" fill="#DAA520"/>
  <rect x="15" y="22" width="2" height="2" fill="#DAA520"/>
  
  <!-- Arms (attacking stance) -->
  <rect x="6" y="12" width="4" height="12" fill="#CD853F"/>
  <rect x="24" y="18" width="4" height="8" fill="#CD853F"/>
  
  <!-- Arm bands -->
  <rect x="6" y="14" width="4" height="2" fill="#B8860B"/>
  <rect x="24" y="20" width="4" height="2" fill="#B8860B"/>
  
  <!-- Hands (gripping weapon) -->
  <rect x="6" y="24" width="4" height="4" fill="#CD853F"/>
  <rect x="24" y="26" width="4" height="4" fill="#CD853F"/>
  
  <!-- Tribal skirt (battle stance) -->
  <rect x="8" y="26" width="16" height="8" fill="#654321"/>
  <rect x="10" y="34" width="12" height="2" fill="#654321"/>
  
  <!-- Skirt decorations -->
  <rect x="10" y="28" width="2" height="2" fill="#DAA520"/>
  <rect x="14" y="28" width="2" height="2" fill="#DAA520"/>
  <rect x="18" y="28" width="2" height="2" fill="#DAA520"/>
  
  <!-- Legs (stable fighting stance) -->
  <rect x="10" y="36" width="4" height="8" fill="#CD853F"/>
  <rect x="18" y="36" width="4" height="8" fill="#CD853F"/>
  
  <!-- Feet/Sandals (planted) -->
  <rect x="8" y="44" width="6" height="4" fill="#8B4513"/>
  <rect x="18" y="44" width="6" height="4" fill="#8B4513"/>
  
  <!-- Sword (being wielded) -->
  <rect x="2" y="8" width="2" height="12" fill="#C0C0C0"/>
  <rect x="1" y="10" width="4" height="8" fill="#E6E6FA"/>
  <rect x="2" y="20" width="2" height="4" fill="#8B4513"/>
  <rect x="2" y="24" width="2" height="2" fill="#DAA520"/>
</svg>
