<svg width="16" height="16" viewBox="0 0 16 16" xmlns="http://www.w3.org/2000/svg" style="image-rendering: pixelated;">
  <!-- Soil/Dirt Platform Tile -->
  
  <!-- Earth/dirt base -->
  <rect x="0" y="0" width="16" height="16" fill="#8B4513"/>
  
  <!-- Dirt texture -->
  <rect x="2" y="2" width="1" height="1" fill="#A0522D"/>
  <rect x="7" y="4" width="1" height="1" fill="#A0522D"/>
  <rect x="12" y="3" width="1" height="1" fill="#A0522D"/>
  <rect x="4" y="6" width="1" height="1" fill="#A0522D"/>
  <rect x="9" y="8" width="1" height="1" fill="#A0522D"/>
  <rect x="14" y="6" width="1" height="1" fill="#A0522D"/>
  <rect x="1" y="9" width="1" height="1" fill="#A0522D"/>
  <rect x="6" y="11" width="1" height="1" fill="#A0522D"/>
  <rect x="11" y="10" width="1" height="1" fill="#A0522D"/>
  <rect x="15" y="12" width="1" height="1" fill="#A0522D"/>
  <rect x="3" y="14" width="1" height="1" fill="#A0522D"/>
  <rect x="8" y="13" width="1" height="1" fill="#A0522D"/>
  
  <!-- Small rocks -->
  <rect x="3" y="5" width="1" height="1" fill="#696969"/>
  <rect x="10" y="2" width="1" height="1" fill="#696969"/>
  <rect x="13" y="8" width="1" height="1" fill="#696969"/>
  <rect x="5" y="12" width="1" height="1" fill="#696969"/>
  <rect x="0" y="7" width="1" height="1" fill="#696969"/>
  <rect x="15" y="15" width="1" height="1" fill="#696969"/>
  
  <!-- Darker patches -->
  <rect x="1" y="1" width="1" height="1" fill="#654321"/>
  <rect x="8" y="5" width="1" height="1" fill="#654321"/>
  <rect x="14" y="9" width="1" height="1" fill="#654321"/>
  <rect x="4" y="15" width="1" height="1" fill="#654321"/>
</svg>
