<svg width="24" height="32" viewBox="0 0 24 32" xmlns="http://www.w3.org/2000/svg">
  <defs>
    <style>
      .tornado-3d {
        animation: tornado-rotate 0.8s linear infinite;
        transform-origin: 12px 16px;
      }
      .debris-spiral {
        animation: debris-orbit 1.2s linear infinite;
        transform-origin: 12px 16px;
      }
      .debris-spiral-2 {
        animation: debris-orbit 1.5s linear infinite reverse;
        transform-origin: 12px 16px;
      }
      @keyframes tornado-rotate {
        0% { transform: rotateY(0deg); }
        25% { transform: rotateY(15deg); }
        50% { transform: rotateY(0deg); }
        75% { transform: rotateY(-15deg); }
        100% { transform: rotateY(0deg); }
      }
      @keyframes debris-orbit {
        0% { transform: rotate(0deg) translateX(8px) rotate(0deg); }
        100% { transform: rotate(360deg) translateX(8px) rotate(-360deg); }
      }
    </style>
  </defs>
  
  <!-- 3D Tornado with perspective and depth -->
  <g class="tornado-3d">
    <!-- Cloud base with 3D perspective -->
    <ellipse cx="12" cy="4" rx="10" ry="3" fill="#E6F3FF" opacity="0.9"/>
    <ellipse cx="12" cy="6" rx="8" ry="2.5" fill="#CCE7FF"/>
    <ellipse cx="12" cy="8" rx="6" ry="2" fill="#B3DBFF"/>
    
    <!-- Upper tornado cone with 3D shading -->
    <ellipse cx="12" cy="10" rx="5" ry="1.8" fill="#99CFFF"/>
    <ellipse cx="11.5" cy="10" rx="2" ry="1.2" fill="#80C3FF"/> <!-- Left shadow -->
    <ellipse cx="12.5" cy="10" rx="2" ry="1.2" fill="#CCEBFF"/> <!-- Right highlight -->
    
    <ellipse cx="12" cy="12" rx="4" ry="1.5" fill="#80C3FF"/>
    <ellipse cx="11.5" cy="12" rx="1.5" ry="1" fill="#66B7FF"/>
    <ellipse cx="12.5" cy="12" rx="1.5" ry="1" fill="#B3DBFF"/>
    
    <ellipse cx="12" cy="14" rx="3.5" ry="1.3" fill="#66B7FF"/>
    <ellipse cx="11.2" cy="14" rx="1.2" ry="0.8" fill="#4DABFF"/>
    <ellipse cx="12.8" cy="14" rx="1.2" ry="0.8" fill="#99CFFF"/>
    
    <!-- Middle tornado with stronger 3D effect -->
    <ellipse cx="12" cy="16" rx="3" ry="1.2" fill="#4DABFF"/>
    <ellipse cx="11" cy="16" rx="1" ry="0.8" fill="#339FFF"/>
    <ellipse cx="13" cy="16" rx="1" ry="0.8" fill="#80C3FF"/>
    
    <ellipse cx="12" cy="18" rx="2.5" ry="1" fill="#339FFF"/>
    <ellipse cx="10.8" cy="18" rx="0.8" ry="0.6" fill="#1A93FF"/>
    <ellipse cx="13.2" cy="18" rx="0.8" ry="0.6" fill="#66B7FF"/>
    
    <ellipse cx="12" cy="20" rx="2" ry="0.8" fill="#1A93FF"/>
    <ellipse cx="10.5" cy="20" rx="0.6" ry="0.5" fill="#0087FF"/>
    <ellipse cx="13.5" cy="20" rx="0.6" ry="0.5" fill="#4DABFF"/>
    
    <!-- Lower tornado narrowing to spout -->
    <ellipse cx="12" cy="22" rx="1.8" ry="0.7" fill="#0087FF"/>
    <ellipse cx="11" cy="22" rx="0.5" ry="0.4" fill="#0080E6"/>
    <ellipse cx="13" cy="22" rx="0.5" ry="0.4" fill="#339FFF"/>
    
    <ellipse cx="12" cy="24" rx="1.5" ry="0.6" fill="#0080E6"/>
    <ellipse cx="10.8" cy="24" rx="0.4" ry="0.3" fill="#0073CC"/>
    <ellipse cx="13.2" cy="24" rx="0.4" ry="0.3" fill="#1A93FF"/>
    
    <ellipse cx="12" cy="26" rx="1.2" ry="0.5" fill="#0073CC"/>
    <ellipse cx="11" cy="26" rx="0.3" ry="0.2" fill="#0066B3"/>
    <ellipse cx="13" cy="26" rx="0.3" ry="0.2" fill="#0087FF"/>
    
    <!-- Tornado spout -->
    <ellipse cx="12" cy="28" rx="0.8" ry="0.3" fill="#0066B3"/>
    <ellipse cx="12" cy="30" rx="0.5" ry="0.2" fill="#005999"/>
    
    <!-- 3D spiral lines -->
    <path d="M 8 10 Q 12 8 16 10 Q 12 12 8 10" fill="none" stroke="#FFFFFF" stroke-width="0.5" opacity="0.8"/>
    <path d="M 7 14 Q 12 12 17 14 Q 12 16 7 14" fill="none" stroke="#FFFFFF" stroke-width="0.5" opacity="0.7"/>
    <path d="M 8 18 Q 12 16 16 18 Q 12 20 8 18" fill="none" stroke="#FFFFFF" stroke-width="0.5" opacity="0.6"/>
    <path d="M 9 22 Q 12 20 15 22 Q 12 24 9 22" fill="none" stroke="#FFFFFF" stroke-width="0.5" opacity="0.5"/>
  </g>
  
  <!-- Spinning debris in 3D orbits -->
  <g class="debris-spiral">
    <circle cx="20" cy="12" r="0.5" fill="#FFFFFF" opacity="0.9"/>
    <circle cx="4" cy="16" r="0.5" fill="#CCE7FF" opacity="0.8"/>
    <circle cx="18" cy="20" r="0.4" fill="#FFFFFF" opacity="0.7"/>
  </g>
  
  <g class="debris-spiral-2">
    <circle cx="6" cy="10" r="0.4" fill="#B3DBFF" opacity="0.8"/>
    <circle cx="18" cy="14" r="0.5" fill="#FFFFFF" opacity="0.7"/>
    <circle cx="8" cy="22" r="0.3" fill="#CCE7FF" opacity="0.6"/>
  </g>
  
  <!-- Ground dust effect -->
  <ellipse cx="12" cy="31" rx="6" ry="1" fill="#E6F3FF" opacity="0.5"/>
  <ellipse cx="12" cy="30.5" rx="4" ry="0.7" fill="#CCE7FF" opacity="0.6"/>
</svg>
