<svg width="32" height="32" viewBox="0 0 32 32" xmlns="http://www.w3.org/2000/svg">
  <defs>
    <style>
      .tornado-3d {
        animation: tornado-rotate 1.2s ease-in-out infinite;
        transform-origin: 16px 16px;
      }
      .debris-spiral {
        animation: debris-orbit 1.4s linear infinite;
        transform-origin: 16px 16px;
      }
      .debris-spiral-2 {
        animation: debris-orbit 1.7s linear infinite reverse;
        transform-origin: 16px 16px;
      }
      @keyframes tornado-rotate {
        0% { transform: rotateY(0deg); }
        25% { transform: rotateY(40deg); }
        50% { transform: rotateY(0deg); }
        75% { transform: rotateY(-40deg); }
        100% { transform: rotateY(0deg); }
      }
      @keyframes debris-orbit {
        0% { transform: rotate(0deg) translateX(10px) rotate(0deg); }
        100% { transform: rotate(360deg) translateX(10px) rotate(-360deg); }
      }
    </style>
  </defs>
  
  <!-- 3D Tornado with enhanced perspective and wider, slower jitter -->
  <g class="tornado-3d">
    <!-- Cloud base with 3D perspective -->
    <ellipse cx="16" cy="4" rx="12" ry="3" fill="#E6F3FF" opacity="0.9"/>
    <ellipse cx="16" cy="6" rx="10" ry="2.5" fill="#CCE7FF"/>
    <ellipse cx="16" cy="8" rx="8" ry="2" fill="#B3DBFF"/>
    
    <!-- Upper tornado cone with 3D shading -->
    <ellipse cx="16" cy="10" rx="6" ry="1.8" fill="#99CFFF"/>
    <ellipse cx="15" cy="10" rx="2.5" ry="1.2" fill="#80C3FF"/> <!-- Left shadow -->
    <ellipse cx="17" cy="10" rx="2.5" ry="1.2" fill="#CCEBFF"/> <!-- Right highlight -->
    
    <ellipse cx="16" cy="12" rx="5" ry="1.5" fill="#80C3FF"/>
    <ellipse cx="15" cy="12" rx="2" ry="1" fill="#66B7FF"/>
    <ellipse cx="17" cy="12" rx="2" ry="1" fill="#B3DBFF"/>
    
    <ellipse cx="16" cy="14" rx="4.5" ry="1.3" fill="#66B7FF"/>
    <ellipse cx="14.5" cy="14" rx="1.5" ry="0.8" fill="#4DABFF"/>
    <ellipse cx="17.5" cy="14" rx="1.5" ry="0.8" fill="#99CFFF"/>
    
    <!-- Middle tornado with stronger 3D effect -->
    <ellipse cx="16" cy="16" rx="4" ry="1.2" fill="#4DABFF"/>
    <ellipse cx="14.5" cy="16" rx="1.3" ry="0.8" fill="#339FFF"/>
    <ellipse cx="17.5" cy="16" rx="1.3" ry="0.8" fill="#80C3FF"/>
    
    <ellipse cx="16" cy="18" rx="3.5" ry="1" fill="#339FFF"/>
    <ellipse cx="14.2" cy="18" rx="1" ry="0.6" fill="#1A93FF"/>
    <ellipse cx="17.8" cy="18" rx="1" ry="0.6" fill="#66B7FF"/>
    
    <ellipse cx="16" cy="20" rx="3" ry="0.8" fill="#1A93FF"/>
    <ellipse cx="14" cy="20" rx="0.8" ry="0.5" fill="#0087FF"/>
    <ellipse cx="18" cy="20" rx="0.8" ry="0.5" fill="#4DABFF"/>
    
    <!-- Lower tornado narrowing to spout -->
    <ellipse cx="16" cy="22" rx="2.5" ry="0.6" fill="#0087FF"/>
    <ellipse cx="14.5" cy="22" rx="0.6" ry="0.3" fill="#0080E6"/>
    <ellipse cx="17.5" cy="22" rx="0.6" ry="0.3" fill="#339FFF"/>
    
    <ellipse cx="16" cy="24" rx="2" ry="0.5" fill="#0080E6"/>
    <ellipse cx="14.5" cy="24" rx="0.4" ry="0.2" fill="#0073CC"/>
    <ellipse cx="17.5" cy="24" rx="0.4" ry="0.2" fill="#1A93FF"/>
    
    <ellipse cx="16" cy="26" rx="1.5" ry="0.3" fill="#0073CC"/>
    <ellipse cx="15" cy="26" rx="0.3" ry="0.1" fill="#0066B3"/>
    <ellipse cx="17" cy="26" rx="0.3" ry="0.1" fill="#0087FF"/>
    
    <!-- Tornado spout - much smaller, no large ellipse -->
    <ellipse cx="16" cy="28" rx="1" ry="0.2" fill="#0066B3"/>
    <ellipse cx="16" cy="29" rx="0.6" ry="0.1" fill="#005999"/>
    <rect x="15.7" y="30" width="0.6" height="1" fill="#004D80"/>
    
    <!-- 3D spiral lines -->
    <path d="M 10 10 Q 16 8 22 10 Q 16 12 10 10" fill="none" stroke="#FFFFFF" stroke-width="0.5" opacity="0.8"/>
    <path d="M 9 14 Q 16 12 23 14 Q 16 16 9 14" fill="none" stroke="#FFFFFF" stroke-width="0.5" opacity="0.7"/>
    <path d="M 10 18 Q 16 16 22 18 Q 16 20 10 18" fill="none" stroke="#FFFFFF" stroke-width="0.5" opacity="0.6"/>
    <path d="M 12 22 Q 16 20 20 22 Q 16 24 12 22" fill="none" stroke="#FFFFFF" stroke-width="0.5" opacity="0.5"/>
  </g>
  
  <!-- Spinning debris in 3D orbits -->
  <g class="debris-spiral">
    <circle cx="26" cy="12" r="0.5" fill="#FFFFFF" opacity="0.9"/>
    <circle cx="6" cy="16" r="0.5" fill="#CCE7FF" opacity="0.8"/>
    <circle cx="24" cy="20" r="0.4" fill="#FFFFFF" opacity="0.7"/>
  </g>
  
  <g class="debris-spiral-2">
    <circle cx="8" cy="10" r="0.4" fill="#B3DBFF" opacity="0.8"/>
    <circle cx="24" cy="14" r="0.5" fill="#FFFFFF" opacity="0.7"/>
    <circle cx="10" cy="22" r="0.3" fill="#CCE7FF" opacity="0.6"/>
  </g>
  
  <!-- Ground dust effect - minimal -->
  <ellipse cx="16" cy="31" rx="4" ry="0.5" fill="#E6F3FF" opacity="0.4"/>
</svg>
