<svg width="120" height="80" viewBox="0 0 120 80" xmlns="http://www.w3.org/2000/svg">
  <!-- Professional 8-bit RPG Dragon - Dying State -->
  <defs>
    <!-- Dragon body gradient - fading -->
    <linearGradient id="dragonBodyDying" x1="0%" y1="0%" x2="100%" y2="100%">
      <stop offset="0%" style="stop-color:#666666;stop-opacity:0.8" />
      <stop offset="30%" style="stop-color:#8B4444;stop-opacity:0.7" />
      <stop offset="70%" style="stop-color:#554444;stop-opacity:0.6" />
      <stop offset="100%" style="stop-color:#2F2F2F;stop-opacity:0.8" />
    </linearGradient>
    
    <!-- Dragon wing membrane - lifeless -->
    <linearGradient id="wingMembraneDying" x1="0%" y1="0%" x2="100%" y2="100%">
      <stop offset="0%" style="stop-color:#1F0000;stop-opacity:0.6" />
      <stop offset="50%" style="stop-color:#2B0000;stop-opacity:0.5" />
      <stop offset="100%" style="stop-color:#0a0000;stop-opacity:0.7" />
    </linearGradient>
    
    <!-- Dragon belly/underside - pale -->
    <linearGradient id="dragonBellyDying" x1="0%" y1="0%" x2="0%" y2="100%">
      <stop offset="0%" style="stop-color:#8D753F;stop-opacity:0.6" />
      <stop offset="50%" style="stop-color:#9E8887;stop-opacity:0.5" />
      <stop offset="100%" style="stop-color:#5B4513;stop-opacity:0.7" />
    </linearGradient>
    
    <!-- Soul effect -->
    <radialGradient id="soulGrad" cx="50%" cy="50%" r="60%">
      <stop offset="0%" style="stop-color:#FFFFFF;stop-opacity:0.8" />
      <stop offset="50%" style="stop-color:#E6E6FA;stop-opacity:0.6" />
      <stop offset="100%" style="stop-color:#B0C4DE;stop-opacity:0.3" />
    </radialGradient>
  </defs>
  
  <!-- Wing (left) - collapsed on ground -->
  <path d="M10,50 Q5,40 15,38 Q25,35 35,42 Q45,48 40,60 Q35,72 25,75 Q15,78 10,75 Q5,70 8,60 Q10,55 10,50 Z" 
        fill="url(#wingMembraneDying)" stroke="#0a0000" stroke-width="1" opacity="0.7"/>
  
  <!-- Wing (right) - spread limply -->
  <path d="M85,45 Q95,35 105,38 Q115,40 118,50 Q120,60 115,70 Q110,75 100,73 Q90,71 85,65 Q80,55 85,45 Z" 
        fill="url(#wingMembraneDying)" stroke="#0a0000" stroke-width="1" opacity="0.7"/>
  
  <!-- Wing bone structure (visible) -->
  <path d="M15,45 Q25,42 35,48" stroke="#000000" stroke-width="0.5" fill="none" opacity="0.5"/>
  <path d="M13,55 Q23,52 33,58" stroke="#000000" stroke-width="0.5" fill="none" opacity="0.5"/>
  <path d="M15,65 Q25,62 35,68" stroke="#000000" stroke-width="0.5" fill="none" opacity="0.5"/>
  
  <path d="M90,42 Q100,39 110,45" stroke="#000000" stroke-width="0.5" fill="none" opacity="0.5"/>
  <path d="M88,52 Q98,49 108,55" stroke="#000000" stroke-width="0.5" fill="none" opacity="0.5"/>
  <path d="M90,62 Q100,59 110,65" stroke="#000000" stroke-width="0.5" fill="none" opacity="0.5"/>
  
  <!-- Dragon main body (collapsed on side) -->
  <ellipse cx="60" cy="58" rx="30" ry="12" fill="url(#dragonBodyDying)" stroke="#1F1F1F" stroke-width="1"/>
  
  <!-- Dragon belly -->
  <ellipse cx="60" cy="62" rx="20" ry="8" fill="url(#dragonBellyDying)"/>
  
  <!-- Dragon chest/neck connection -->
  <ellipse cx="80" cy="52" rx="16" ry="8" fill="url(#dragonBodyDying)" stroke="#1F1F1F" stroke-width="1"/>
  
  <!-- Dragon head - resting on ground -->
  <ellipse cx="95" cy="50" rx="14" ry="9" fill="url(#dragonBodyDying)" stroke="#1F1F1F" stroke-width="1" transform="rotate(20 95 50)"/>
  
  <!-- Dragon muzzle/snout -->
  <ellipse cx="107" cy="53" rx="8" ry="5" fill="url(#dragonBodyDying)" stroke="#1F1F1F" stroke-width="1" transform="rotate(20 107 53)"/>
  
  <!-- Jaw line -->
  <path d="M98,56 Q108,59 118,57" stroke="#1F1F1F" stroke-width="0.5" fill="none" opacity="0.7"/>
  
  <!-- Nostrils (no breath) -->
  <ellipse cx="113" cy="51" rx="1" ry="0.8" fill="#000000" opacity="0.5"/>
  <ellipse cx="113" cy="55" rx="1" ry="0.8" fill="#000000" opacity="0.5"/>
  
  <!-- Dragon eye (closed/dying) -->
  <ellipse cx="92" cy="47" rx="4" ry="3" fill="#555555" stroke="#888888" stroke-width="0.5" opacity="0.6"/>
  <!-- X marks the spot (dead) -->
  <line x1="90" y1="45" x2="94" y2="49" stroke="#000000" stroke-width="1" opacity="0.8"/>
  <line x1="94" y1="45" x2="90" y2="49" stroke="#000000" stroke-width="1" opacity="0.8"/>
  
  <!-- Dragon horns (still visible but dull) -->
  <path d="M88,39 Q86,32 90,29 Q94,32 92,39" fill="#1F1F1F" stroke="#000000" stroke-width="0.5" opacity="0.6"/>
  <path d="M98,37 Q96,30 100,27 Q104,30 102,37" fill="#1F1F1F" stroke="#000000" stroke-width="0.5" opacity="0.6"/>
  
  <!-- Neck ridges/spines (faded) -->
  <ellipse cx="78" cy="46" rx="2" ry="1" fill="#555555" opacity="0.5"/>
  <ellipse cx="83" cy="44" rx="2" ry="1" fill="#555555" opacity="0.5"/>
  <ellipse cx="88" cy="42" rx="2" ry="1" fill="#555555" opacity="0.5"/>
  
  <!-- Dragon legs (sprawled) -->
  <ellipse cx="45" cy="68" rx="5" ry="8" fill="url(#dragonBodyDying)" stroke="#1F1F1F" stroke-width="1" transform="rotate(45 45 68)"/>
  <ellipse cx="75" cy="68" rx="5" ry="8" fill="url(#dragonBodyDying)" stroke="#1F1F1F" stroke-width="1" transform="rotate(-30 75 68)"/>
  
  <!-- Dragon claws (relaxed) -->
  <polygon points="42,74 44,78 46,74" fill="#1a1a1a" stroke="#000000" stroke-width="0.5" opacity="0.6"/>
  <polygon points="46,75 48,79 50,75" fill="#1a1a1a" stroke="#000000" stroke-width="0.5" opacity="0.6"/>
  
  <polygon points="72,74 74,78 76,74" fill="#1a1a1a" stroke="#000000" stroke-width="0.5" opacity="0.6"/>
  <polygon points="76,75 78,79 80,75" fill="#1a1a1a" stroke="#000000" stroke-width="0.5" opacity="0.6"/>
  
  <!-- Dragon tail (limp on ground) -->
  <ellipse cx="32" cy="65" rx="12" ry="5" fill="url(#dragonBodyDying)" stroke="#1F1F1F" stroke-width="1"/>
  <ellipse cx="18" cy="68" rx="8" ry="3" fill="url(#dragonBodyDying)" stroke="#1F1F1F" stroke-width="1"/>
  <ellipse cx="8" cy="70" rx="5" ry="2" fill="url(#dragonBodyDying)" stroke="#1F1F1F" stroke-width="1"/>
  
  <!-- Tail spikes (dull) -->
  <polygon points="27,62 25,58 29,60" fill="#1F1F1F" stroke="#000000" stroke-width="0.5" opacity="0.5"/>
  <polygon points="20,65 18,61 22,63" fill="#1F1F1F" stroke="#000000" stroke-width="0.5" opacity="0.5"/>
  <polygon points="12,67 10,63 14,65" fill="#1F1F1F" stroke="#000000" stroke-width="0.5" opacity="0.5"/>
  
  <!-- Body scale details (fading) -->
  <ellipse cx="50" cy="55" rx="1.5" ry="1" fill="#333333" opacity="0.4"/>
  <ellipse cx="65" cy="52" rx="1.5" ry="1" fill="#333333" opacity="0.4"/>
  <ellipse cx="70" cy="60" rx="1.5" ry="1" fill="#333333" opacity="0.4"/>
  <ellipse cx="55" cy="65" rx="1.5" ry="1" fill="#333333" opacity="0.4"/>
  
  <!-- Soul leaving body -->
  <ellipse cx="70" cy="45" rx="6" ry="4" fill="url(#soulGrad)" opacity="0.7">
    <animateTransform attributeName="transform" type="translate" values="0,0; -5,-15; -10,-30" dur="4s" repeatCount="indefinite"/>
    <animate attributeName="opacity" values="0.7;0.4;0" dur="4s" repeatCount="indefinite"/>
  </ellipse>
  
  <!-- Smaller soul wisps -->
  <circle cx="75" cy="40" r="2" fill="#FFFFFF" opacity="0.5">
    <animateTransform attributeName="transform" type="translate" values="0,0; -2,-10; -4,-20" dur="3s" repeatCount="indefinite"/>
    <animate attributeName="opacity" values="0.5;0.3;0" dur="3s" repeatCount="indefinite"/>
  </circle>
  
  <circle cx="65" cy="42" r="1.5" fill="#E6E6FA" opacity="0.4">
    <animateTransform attributeName="transform" type="translate" values="0,0; -3,-8; -6,-16" dur="3.5s" repeatCount="indefinite"/>
    <animate attributeName="opacity" values="0.4;0.2;0" dur="3.5s" repeatCount="indefinite"/>
  </circle>
  
  <!-- Last dying breath (very faint) -->
  <ellipse cx="115" cy="54" rx="4" ry="2" fill="#FF4500" opacity="0.1">
    <animate attributeName="opacity" values="0.1;0;0.05;0" dur="5s" repeatCount="indefinite"/>
  </ellipse>
</svg>
