<svg width="24" height="32" viewBox="0 0 24 32" xmlns="http://www.w3.org/2000/svg" style="image-rendering: pixelated;">
  <!-- Goblin Idle Frame 1 - Small green enemy -->
  
  <!-- Ears -->
  <rect x="2" y="4" width="2" height="4" fill="#228B22"/>
  <rect x="20" y="4" width="2" height="4" fill="#228B22"/>
  
  <!-- Head -->
  <rect x="6" y="2" width="12" height="10" fill="#228B22"/>
  <rect x="4" y="4" width="2" height="6" fill="#228B22"/>
  <rect x="18" y="4" width="2" height="6" fill="#228B22"/>
  
  <!-- Eyes (glowing red) -->
  <rect x="8" y="5" width="2" height="2" fill="#FF0000"/>
  <rect x="14" y="5" width="2" height="2" fill="#FF0000"/>
  
  <!-- Nose -->
  <rect x="11" y="7" width="2" height="2" fill="#006400"/>
  
  <!-- Mouth/Teeth -->
  <rect x="9" y="9" width="6" height="2" fill="#000000"/>
  <rect x="10" y="8" width="1" height="1" fill="#FFFFFF"/>
  <rect x="13" y="8" width="1" height="1" fill="#FFFFFF"/>
  
  <!-- Neck -->
  <rect x="8" y="12" width="8" height="2" fill="#228B22"/>
  
  <!-- Body -->
  <rect x="6" y="14" width="12" height="8" fill="#654321"/>
  
  <!-- Arms -->
  <rect x="2" y="14" width="4" height="8" fill="#228B22"/>
  <rect x="18" y="14" width="4" height="8" fill="#228B22"/>
  
  <!-- Claws -->
  <rect x="2" y="22" width="4" height="2" fill="#8B4513"/>
  <rect x="18" y="22" width="4" height="2" fill="#8B4513"/>
  
  <!-- Legs -->
  <rect x="8" y="22" width="3" height="8" fill="#228B22"/>
  <rect x="13" y="22" width="3" height="8" fill="#228B22"/>
  
  <!-- Feet -->
  <rect x="6" y="30" width="5" height="2" fill="#8B4513"/>
  <rect x="13" y="30" width="5" height="2" fill="#8B4513"/>
  
  <!-- Simple weapon (club) -->
  <rect x="0" y="12" width="2" height="8" fill="#8B4513"/>
  <rect x="0" y="10" width="3" height="2" fill="#654321"/>
</svg>
