<svg width="24" height="32" viewBox="0 0 24 32" xmlns="http://www.w3.org/2000/svg" style="image-rendering: pixelated; image-rendering: -moz-crisp-edges; image-rendering: crisp-edges;">
  <!-- Goblin Idle Frame 1 - High Quality 8-bit pixel art -->
  
  <!-- Head -->
  <rect x="8" y="4" width="8" height="6" fill="#228B22"/>
  <rect x="7" y="6" width="10" height="2" fill="#228B22"/>
  
  <!-- Eyes (red and menacing) -->
  <rect x="10" y="6" width="1" height="1" fill="#FF0000"/>
  <rect x="14" y="6" width="1" height="1" fill="#FF0000"/>
  
  <!-- Ears -->
  <rect x="6" y="5" width="2" height="3" fill="#228B22"/>
  <rect x="17" y="5" width="2" height="3" fill="#228B22"/>
  
  <!-- Body -->
  <rect x="6" y="10" width="12" height="10" fill="#8B4513"/>
  
  <!-- Arms -->
  <rect x="2" y="12" width="4" height="8" fill="#228B22"/>
  <rect x="18" y="12" width="4" height="8" fill="#228B22"/>
  
  <!-- Claws -->
  <rect x="1" y="19" width="2" height="2" fill="#FF4500"/>
  <rect x="21" y="19" width="2" height="2" fill="#FF4500"/>
  
  <!-- Legs -->
  <rect x="8" y="20" width="3" height="8" fill="#228B22"/>
  <rect x="13" y="20" width="3" height="8" fill="#228B22"/>
  
  <!-- Feet -->
  <rect x="7" y="28" width="4" height="4" fill="#654321"/>
  <rect x="13" y="28" width="4" height="4" fill="#654321"/>
  
  <!-- Belt -->
  <rect x="6" y="18" width="12" height="2" fill="#2F4F4F"/>
  
  <!-- Facial details -->
  <rect x="11" y="8" width="2" height="1" fill="#FF4500"/>
</svg>
