<svg width="32" height="32" viewBox="0 0 32 32" xmlns="http://www.w3.org/2000/svg" style="image-rendering: pixelated;">
  <!-- Body (lying down/collapsed) -->
  <rect x="6" y="22" width="20" height="8" fill="#4A7C59" stroke="#2D5016" stroke-width="1"/>
  
  <!-- Head (on side) -->
  <rect x="22" y="18" width="8" height="8" fill="#2D5016" stroke="#1A2E0B" stroke-width="1"/>
  
  <!-- Eyes (X'd out) -->
  <rect x="24" y="20" width="1" height="1" fill="#8B0000"/>
  <rect x="26" y="22" width="1" height="1" fill="#8B0000"/>
  <rect x="25" y="21" width="1" height="1" fill="#8B0000"/>
  <rect x="27" y="20" width="1" height="1" fill="#8B0000"/>
  <rect x="28" y="22" width="1" height="1" fill="#8B0000"/>
  
  <!-- Arms (sprawled out) -->
  <rect x="2" y="20" width="6" height="4" fill="#2D5016"/>
  <rect x="8" y="18" width="4" height="3" fill="#2D5016"/>
  
  <!-- Legs (sprawled) -->
  <rect x="6" y="28" width="6" height="4" fill="#2D5016"/>
  <rect x="14" y="29" width="8" height="3" fill="#2D5016"/>
  
  <!-- Death effects (soul/spirit particles) -->
  <rect x="24" y="12" width="2" height="2" fill="#E0E0E0"/>
  <rect x="26" y="8" width="2" height="2" fill="#C0C0C0"/>
  <rect x="28" y="6" width="2" height="2" fill="#E0E0E0"/>
  <rect x="22" y="10" width="1" height="1" fill="#F0F0F0"/>
  <rect x="25" y="14" width="1" height="1" fill="#D0D0D0"/>
  
  <!-- Blood spots -->
  <rect x="20" y="26" width="2" height="1" fill="#8B0000"/>
  <rect x="18" y="24" width="1" height="2" fill="#8B0000"/>
  <rect x="16" y="28" width="1" height="1" fill="#8B0000"/>
</svg>
