<svg width="32" height="32" viewBox="0 0 32 32" xmlns="http://www.w3.org/2000/svg" style="image-rendering: pixelated;">
  <!-- Body (collapsed on ground) -->
  <rect x="4" y="20" width="24" height="10" fill="#8B7355" stroke="#6B4423" stroke-width="1"/>
  
  <!-- Head (laying on side) -->
  <rect x="20" y="14" width="10" height="10" fill="#6B4423" stroke="#4A2C17" stroke-width="1"/>
  
  <!-- Eyes (X'd out) -->
  <rect x="22" y="17" width="1" height="1" fill="#8B0000"/>
  <rect x="24" y="19" width="1" height="1" fill="#8B0000"/>
  <rect x="23" y="18" width="1" height="1" fill="#8B0000"/>
  <rect x="26" y="17" width="1" height="1" fill="#8B0000"/>
  <rect x="28" y="19" width="1" height="1" fill="#8B0000"/>
  <rect x="27" y="18" width="1" height="1" fill="#8B0000"/>
  
  <!-- Mouth (open) -->
  <rect x="24" y="21" width="3" height="2" fill="#000000"/>
  
  <!-- Arms (sprawled out) -->
  <rect x="0" y="18" width="8" height="6" fill="#6B4423"/>
  <rect x="6" y="16" width="6" height="4" fill="#6B4423"/>
  
  <!-- Legs (sprawled) -->
  <rect x="4" y="28" width="8" height="4" fill="#6B4423"/>
  <rect x="16" y="28" width="10" height="4" fill="#6B4423"/>
  
  <!-- Death effects (soul/spirit particles) -->
  <rect x="22" y="8" width="2" height="2" fill="#E0E0E0"/>
  <rect x="25" y="5" width="2" height="2" fill="#C0C0C0"/>
  <rect x="28" y="3" width="2" height="2" fill="#E0E0E0"/>
  <rect x="20" y="6" width="1" height="1" fill="#F0F0F0"/>
  <rect x="24" y="10" width="1" height="1" fill="#D0D0D0"/>
  <rect x="27" y="7" width="1" height="1" fill="#E0E0E0"/>
  
  <!-- Blood spots -->
  <rect x="18" y="26" width="3" height="1" fill="#8B0000"/>
  <rect x="16" y="24" width="2" height="2" fill="#8B0000"/>
  <rect x="14" y="28" width="1" height="2" fill="#8B0000"/>
</svg>
