<svg width="32" height="32" viewBox="0 0 32 32" xmlns="http://www.w3.org/2000/svg" style="image-rendering: pixelated;">
  <!-- Skull (cracked and fallen) -->
  <rect x="18" y="20" width="10" height="8" fill="#F5F5DC" stroke="#D3D3D3" stroke-width="1"/>
  
  <!-- Crack in skull -->
  <rect x="21" y="20" width="1" height="8" fill="#808080"/>
  <rect x="25" y="22" width="1" height="6" fill="#808080"/>
  
  <!-- Eye sockets (dark/empty) -->
  <rect x="19" y="22" width="2" height="2" fill="#000000"/>
  <rect x="25" y="22" width="2" height="2" fill="#000000"/>
  
  <!-- Jaw (detached) -->
  <rect x="20" y="26" width="4" height="2" fill="#E0E0E0"/>
  
  <!-- Scattered ribs -->
  <rect x="6" y="24" width="8" height="2" fill="#F5F5DC"/>
  <rect x="8" y="22" width="6" height="1" fill="#D3D3D3"/>
  <rect x="10" y="26" width="4" height="1" fill="#D3D3D3"/>
  
  <!-- Scattered arm bones -->
  <rect x="2" y="18" width="6" height="2" fill="#F5F5DC"/>
  <rect x="24" y="16" width="4" height="2" fill="#F5F5DC"/>
  <rect x="14" y="20" width="3" height="2" fill="#F5F5DC"/>
  
  <!-- Scattered leg bones -->
  <rect x="4" y="28" width="6" height="2" fill="#F5F5DC"/>
  <rect x="12" y="30" width="8" height="2" fill="#F5F5DC"/>
  <rect x="22" y="28" width="4" height="2" fill="#F5F5DC"/>
  
  <!-- Spine pieces -->
  <rect x="14" y="24" width="2" height="4" fill="#F5F5DC"/>
  <rect x="15" y="22" width="1" height="1" fill="#D3D3D3"/>
  <rect x="15" y="26" width="1" height="1" fill="#D3D3D3"/>
  
  <!-- Death effects (ghostly particles) -->
  <rect x="20" y="12" width="2" height="2" fill="#E0E0E0"/>
  <rect x="24" y="8" width="2" height="2" fill="#C0C0C0"/>
  <rect x="28" y="6" width="2" height="2" fill="#E0E0E0"/>
  <rect x="18" y="10" width="1" height="1" fill="#F0F0F0"/>
  <rect x="22" y="14" width="1" height="1" fill="#D0D0D0"/>
  <rect x="26" y="11" width="1" height="1" fill="#E0E0E0"/>
  
  <!-- Bone dust scattered around -->
  <rect x="8" y="20" width="1" height="1" fill="#E0E0E0"/>
  <rect x="16" y="18" width="1" height="1" fill="#E0E0E0"/>
  <rect x="26" y="24" width="1" height="1" fill="#E0E0E0"/>
  <rect x="12" y="28" width="1" height="1" fill="#E0E0E0"/>
  <rect x="6" y="26" width="1" height="1" fill="#E0E0E0"/>
</svg>
