<svg width="32" height="40" viewBox="0 0 32 40" xmlns="http://www.w3.org/2000/svg" style="image-rendering: pixelated;">
  <!-- Undead Skeleton Warrior - Classic RPG 8-bit style with detailed bones -->
  
  <!-- Skull base -->
  <rect x="10" y="4" width="12" height="10" fill="#F5F5DC"/>
  <rect x="8" y="6" width="16" height="6" fill="#F5F5DC"/>
  <rect x="9" y="5" width="14" height="8" fill="#FFFACD"/>
  
  <!-- Skull shading and highlights -->
  <rect x="11" y="5" width="10" height="2" fill="#FFFFFF"/>
  <rect x="12" y="7" width="8" height="2" fill="#F0F8FF"/>
  
  <!-- Eye sockets (deep and menacing) -->
  <rect x="12" y="7" width="3" height="3" fill="#000000"/>
  <rect x="17" y="7" width="3" height="3" fill="#000000"/>
  <rect x="13" y="8" width="1" height="1" fill="#8B0000"/>
  <rect x="18" y="8" width="1" height="1" fill="#8B0000"/>
  
  <!-- Nasal cavity -->
  <rect x="15" y="9" width="2" height="3" fill="#000000"/>
  
  <!-- Jaw and teeth -->
  <rect x="12" y="12" width="8" height="2" fill="#F5F5DC"/>
  <rect x="13" y="13" width="1" height="1" fill="#FFFFFF"/>
  <rect x="15" y="13" width="1" height="1" fill="#FFFFFF"/>
  <rect x="17" y="13" width="1" height="1" fill="#FFFFFF"/>
  <rect x="19" y="13" width="1" height="1" fill="#FFFFFF"/>
  
  <!-- Neck vertebrae -->
  <rect x="14" y="14" width="4" height="2" fill="#F5F5DC"/>
  <rect x="15" y="14" width="2" height="2" fill="#FFFACD"/>
  
  <!-- Ribcage (detailed with proper curve) -->
  <rect x="8" y="16" width="16" height="14" fill="#F5F5DC"/>
  <rect x="9" y="17" width="14" height="12" fill="#FFFACD"/>
  
  <!-- Individual ribs -->
  <rect x="10" y="18" width="12" height="1" fill="#E6E6FA"/>
  <rect x="10" y="20" width="12" height="1" fill="#E6E6FA"/>
  <rect x="10" y="22" width="12" height="1" fill="#E6E6FA"/>
  <rect x="10" y="24" width="12" height="1" fill="#E6E6FA"/>
  <rect x="10" y="26" width="12" height="1" fill="#E6E6FA"/>
  
  <!-- Spine -->
  <rect x="15" y="16" width="2" height="14" fill="#DCDCDC"/>
  
  <!-- Arms (bone structure) -->
  <rect x="4" y="18" width="4" height="8" fill="#F5F5DC"/>
  <rect x="24" y="18" width="4" height="8" fill="#F5F5DC"/>
  <rect x="5" y="19" width="2" height="6" fill="#FFFACD"/>
  <rect x="25" y="19" width="2" height="6" fill="#FFFACD"/>
  
  <!-- Forearms -->
  <rect x="2" y="26" width="4" height="6" fill="#F5F5DC"/>
  <rect x="26" y="26" width="4" height="6" fill="#F5F5DC"/>
  <rect x="3" y="27" width="2" height="4" fill="#FFFACD"/>
  <rect x="27" y="27" width="2" height="4" fill="#FFFACD"/>
  
  <!-- Hands (skeletal) -->
  <rect x="2" y="32" width="4" height="3" fill="#F5F5DC"/>
  <rect x="26" y="32" width="4" height="3" fill="#F5F5DC"/>
  
  <!-- Finger bones -->
  <rect x="1" y="35" width="1" height="2" fill="#FFFACD"/>
  <rect x="3" y="35" width="1" height="2" fill="#FFFACD"/>
  <rect x="5" y="35" width="1" height="2" fill="#FFFACD"/>
  <rect x="26" y="35" width="1" height="2" fill="#FFFACD"/>
  <rect x="28" y="35" width="1" height="2" fill="#FFFACD"/>
  <rect x="30" y="35" width="1" height="2" fill="#FFFACD"/>
  
  <!-- Leg bones (femurs) -->
  <rect x="10" y="30" width="4" height="8" fill="#F5F5DC"/>
  <rect x="18" y="30" width="4" height="8" fill="#F5F5DC"/>
  <rect x="11" y="31" width="2" height="6" fill="#FFFACD"/>
  <rect x="19" y="31" width="2" height="6" fill="#FFFACD"/>
  
  <!-- Feet (skeletal) -->
  <rect x="9" y="38" width="5" height="2" fill="#F5F5DC"/>
  <rect x="18" y="38" width="5" height="2" fill="#F5F5DC"/>
  
  <!-- Joint connections (darker bone) -->
  <rect x="5" y="25" width="2" height="2" fill="#DCDCDC"/>
  <rect x="25" y="25" width="2" height="2" fill="#DCDCDC"/>
  <rect x="12" y="37" width="2" height="2" fill="#DCDCDC"/>
  <rect x="20" y="37" width="2" height="2" fill="#DCDCDC"/>
  
  <!-- Eerie glow effect -->
  <rect x="11" y="6" width="1" height="1" fill="#98FB98"/>
  <rect x="20" y="6" width="1" height="1" fill="#98FB98"/>
</svg>
