<svg width="32" height="48" viewBox="0 0 32 48" xmlns="http://www.w3.org/2000/svg" style="image-rendering: pixelated;">
  <!-- Amazonian Warrior Magic Cast - Matching idle design -->
  
  <!-- Hair -->
  <rect x="10" y="4" width="12" height="8" fill="#2B1810"/>
  <rect x="8" y="6" width="2" height="6" fill="#2B1810"/>
  <rect x="22" y="6" width="2" height="6" fill="#2B1810"/>
  
  <!-- Face -->
  <rect x="10" y="8" width="12" height="8" fill="#CD853F"/>
  <rect x="8" y="10" width="2" height="4" fill="#CD853F"/>
  <rect x="22" y="10" width="2" height="4" fill="#CD853F"/>
  
  <!-- Eyes (glowing with magic) -->
  <rect x="12" y="10" width="2" height="2" fill="#00BFFF"/>
  <rect x="18" y="10" width="2" height="2" fill="#00BFFF"/>
  
  <!-- Nose -->
  <rect x="15" y="12" width="2" height="1" fill="#B8860B"/>
  
  <!-- Mouth (focused on casting) -->
  <rect x="14" y="14" width="4" height="1" fill="#8B4513"/>
  
  <!-- Neck -->
  <rect x="12" y="16" width="8" height="2" fill="#CD853F"/>
  
  <!-- Tribal Top -->
  <rect x="10" y="18" width="12" height="8" fill="#8B4513"/>
  <rect x="8" y="20" width="2" height="4" fill="#8B4513"/>
  <rect x="22" y="20" width="2" height="4" fill="#8B4513"/>
  
  <!-- Tribal decorations -->
  <rect x="12" y="20" width="2" height="2" fill="#DAA520"/>
  <rect x="18" y="20" width="2" height="2" fill="#DAA520"/>
  <rect x="15" y="22" width="2" height="2" fill="#DAA520"/>
  
  <!-- Left arm (raised for casting) -->
  <rect x="2" y="12" width="8" height="8" fill="#CD853F"/>
  <rect x="2" y="14" width="8" height="2" fill="#B8860B"/> <!-- arm band -->
  
  <!-- Right arm (raised for casting) -->
  <rect x="22" y="10" width="8" height="10" fill="#CD853F"/>
  <rect x="22" y="12" width="8" height="2" fill="#B8860B"/> <!-- arm band -->
  
  <!-- Hands (glowing with magic) -->
  <rect x="0" y="10" width="4" height="4" fill="#CD853F"/> <!-- left hand -->
  <rect x="1" y="11" width="2" height="2" fill="#00BFFF"/> <!-- magic glow -->
  <rect x="28" y="8" width="4" height="4" fill="#CD853F"/> <!-- right hand -->
  <rect x="29" y="9" width="2" height="2" fill="#00BFFF"/> <!-- magic glow -->
  
  <!-- Magic energy around hands -->
  <rect x="0" y="8" width="2" height="2" fill="#9D4EDD"/>
  <rect x="0" y="14" width="2" height="2" fill="#C77DFF"/>
  <rect x="2" y="16" width="2" height="2" fill="#7B2CBF"/>
  <rect x="30" y="6" width="2" height="2" fill="#9D4EDD"/>
  <rect x="30" y="12" width="2" height="2" fill="#C77DFF"/>
  <rect x="28" y="14" width="2" height="2" fill="#7B2CBF"/>
  
  <!-- Magic aura around body -->
  <rect x="6" y="16" width="1" height="1" fill="#E0AAFF"/>
  <rect x="25" y="18" width="1" height="1" fill="#E0AAFF"/>
  <rect x="7" y="28" width="1" height="1" fill="#C77DFF"/>
  <rect x="24" y="30" width="1" height="1" fill="#9D4EDD"/>
  
  <!-- Tribal skirt -->
  <rect x="8" y="26" width="16" height="8" fill="#654321"/>
  
  <!-- Decorative fringe -->
  <rect x="9" y="33" width="2" height="1" fill="#8B4513"/>
  <rect x="13" y="33" width="2" height="1" fill="#8B4513"/>
  <rect x="17" y="33" width="2" height="1" fill="#8B4513"/>
  <rect x="21" y="33" width="2" height="1" fill="#8B4513"/>
  
  <!-- Legs -->
  <rect x="10" y="34" width="5" height="10" fill="#CD853F"/>
  <rect x="17" y="34" width="5" height="10" fill="#CD853F"/>
  
  <!-- Feet -->
  <rect x="8" y="44" width="8" height="4" fill="#654321"/>
  <rect x="16" y="44" width="8" height="4" fill="#654321"/>
  
  <!-- Magic sparkles floating around -->
  <rect x="14" y="2" width="1" height="1" fill="#FFD700"/>
  <rect x="18" y="3" width="1" height="1" fill="#E0AAFF"/>
  <rect x="12" y="36" width="1" height="1" fill="#9D4EDD"/>
  <rect x="19" y="38" width="1" height="1" fill="#C77DFF"/>
  <rect x="26" y="22" width="1" height="1" fill="#FFD700"/>
  <rect x="5" y="24" width="1" height="1" fill="#E0AAFF"/>
  <rect x="16" y="6" width="1" height="1" fill="#9D4EDD"/>
  <rect x="11" y="40" width="1" height="1" fill="#C77DFF"/>
  
  <!-- Central magic energy -->
  <rect x="15" y="26" width="2" height="2" fill="#00BFFF"/>
  <rect x="14" y="27" width="1" height="1" fill="#E0AAFF"/>
  <rect x="17" y="27" width="1" height="1" fill="#E0AAFF"/>
</svg>
