<svg width="32" height="48" viewBox="0 0 32 48" xmlns="http://www.w3.org/2000/svg" style="image-rendering: pixelated;">
  <!-- Amazonian Warrior Idle Frame 2 - Slight breathing animation -->
  
  <!-- Hair (slightly moved) -->
  <rect x="10" y="3" width="12" height="8" fill="#2B1810"/>
  <rect x="8" y="5" width="2" height="6" fill="#2B1810"/>
  <rect x="22" y="5" width="2" height="6" fill="#2B1810"/>
  
  <!-- Face -->
  <rect x="10" y="7" width="12" height="8" fill="#CD853F"/>
  <rect x="8" y="9" width="2" height="4" fill="#CD853F"/>
  <rect x="22" y="9" width="2" height="4" fill="#CD853F"/>
  
  <!-- Eyes -->
  <rect x="12" y="9" width="2" height="2" fill="#000000"/>
  <rect x="18" y="9" width="2" height="2" fill="#000000"/>
  
  <!-- Nose -->
  <rect x="15" y="11" width="2" height="1" fill="#B8860B"/>
  
  <!-- Mouth -->
  <rect x="14" y="13" width="4" height="1" fill="#8B4513"/>
  
  <!-- Neck -->
  <rect x="12" y="15" width="8" height="2" fill="#CD853F"/>
  
  <!-- Tribal Top (chest expanded slightly) -->
  <rect x="9" y="17" width="14" height="8" fill="#8B4513"/>
  <rect x="7" y="19" width="2" height="4" fill="#8B4513"/>
  <rect x="23" y="19" width="2" height="4" fill="#8B4513"/>
  
  <!-- Tribal decorations -->
  <rect x="12" y="19" width="2" height="2" fill="#DAA520"/>
  <rect x="18" y="19" width="2" height="2" fill="#DAA520"/>
  <rect x="15" y="21" width="2" height="2" fill="#DAA520"/>
  
  <!-- Arms -->
  <rect x="5" y="17" width="4" height="12" fill="#CD853F"/>
  <rect x="23" y="17" width="4" height="12" fill="#CD853F"/>
  
  <!-- Arm bands -->
  <rect x="5" y="19" width="4" height="2" fill="#B8860B"/>
  <rect x="23" y="19" width="4" height="2" fill="#B8860B"/>
  
  <!-- Hands -->
  <rect x="5" y="29" width="4" height="4" fill="#CD853F"/>
  <rect x="23" y="29" width="4" height="4" fill="#CD853F"/>
  
  <!-- Tribal skirt -->
  <rect x="8" y="25" width="16" height="8" fill="#654321"/>
  <rect x="10" y="33" width="12" height="2" fill="#654321"/>
  
  <!-- Skirt decorations -->
  <rect x="10" y="27" width="2" height="2" fill="#DAA520"/>
  <rect x="14" y="27" width="2" height="2" fill="#DAA520"/>
  <rect x="18" y="27" width="2" height="2" fill="#DAA520"/>
  
  <!-- Legs -->
  <rect x="10" y="35" width="4" height="8" fill="#CD853F"/>
  <rect x="18" y="35" width="4" height="8" fill="#CD853F"/>
  
  <!-- Feet/Sandals -->
  <rect x="8" y="43" width="6" height="4" fill="#8B4513"/>
  <rect x="18" y="43" width="6" height="4" fill="#8B4513"/>
  
  <!-- Sword on back (handle visible) -->
  <rect x="3" y="13" width="2" height="8" fill="#8B4513"/>
  <rect x="3" y="11" width="2" height="2" fill="#DAA520"/>
</svg>
