<svg width="32" height="48" viewBox="0 0 32 48" xmlns="http://www.w3.org/2000/svg" style="image-rendering: pixelated;">
  <!-- Amazonian Warrior Jumping - matching idle character -->
  
  <!-- Hair (flowing with jump motion) -->
  <rect x="10" y="4" width="12" height="8" fill="#2B1810"/>
  <rect x="8" y="6" width="2" height="6" fill="#2B1810"/>
  <rect x="22" y="6" width="2" height="6" fill="#2B1810"/>
  
  <!-- Face (concentrated) -->
  <rect x="10" y="8" width="12" height="8" fill="#CD853F"/>
  <rect x="8" y="10" width="2" height="4" fill="#CD853F"/>
  <rect x="22" y="10" width="2" height="4" fill="#CD853F"/>
  
  <!-- Eyes (focused) -->
  <rect x="12" y="10" width="2" height="2" fill="#000000"/>
  <rect x="18" y="10" width="2" height="2" fill="#000000"/>
  
  <!-- Nose -->
  <rect x="15" y="12" width="2" height="1" fill="#B8860B"/>
  
  <!-- Mouth (slight exertion) -->
  <rect x="14" y="14" width="4" height="1" fill="#8B4513"/>
  
  <!-- Neck -->
  <rect x="12" y="16" width="8" height="2" fill="#CD853F"/>
  
  <!-- Tribal Top (same style) -->
  <rect x="10" y="18" width="12" height="8" fill="#8B4513"/>
  <rect x="8" y="20" width="2" height="4" fill="#8B4513"/>
  <rect x="22" y="20" width="2" height="4" fill="#8B4513"/>
  
  <!-- Tribal decorations -->
  <rect x="12" y="20" width="2" height="2" fill="#DAA520"/>
  <rect x="18" y="20" width="2" height="2" fill="#DAA520"/>
  <rect x="15" y="22" width="2" height="2" fill="#DAA520"/>
  
  <!-- Arms (raised for jumping) -->
  <rect x="4" y="12" width="4" height="10" fill="#CD853F"/>
  <rect x="24" y="12" width="4" height="10" fill="#CD853F"/>
  
  <!-- Arm bands -->
  <rect x="4" y="14" width="4" height="2" fill="#B8860B"/>
  <rect x="24" y="14" width="4" height="2" fill="#B8860B"/>
  
  <!-- Hands (reaching up) -->
  <rect x="4" y="22" width="4" height="4" fill="#CD853F"/>
  <rect x="24" y="22" width="4" height="4" fill="#CD853F"/>
  
  <!-- Tribal skirt (flowing with jump) -->
  <rect x="8" y="26" width="16" height="8" fill="#654321"/>
  <rect x="10" y="34" width="12" height="2" fill="#654321"/>
  
  <!-- Skirt decorations -->
  <rect x="10" y="28" width="2" height="2" fill="#DAA520"/>
  <rect x="14" y="28" width="2" height="2" fill="#DAA520"/>
  <rect x="18" y="28" width="2" height="2" fill="#DAA520"/>
  
  <!-- Legs (bent for jumping) -->
  <rect x="12" y="36" width="3" height="8" fill="#CD853F"/>
  <rect x="17" y="36" width="3" height="8" fill="#CD853F"/>
  
  <!-- Feet/Sandals (tucked up) -->
  <rect x="10" y="44" width="5" height="4" fill="#8B4513"/>
  <rect x="17" y="44" width="5" height="4" fill="#8B4513"/>
  
  <!-- Sword on back (visible) -->
  <rect x="3" y="14" width="2" height="8" fill="#8B4513"/>
  <rect x="3" y="12" width="2" height="2" fill="#DAA520"/>
</svg>
