<svg width="16" height="16" viewBox="0 0 16 16" xmlns="http://www.w3.org/2000/svg" style="image-rendering: pixelated; image-rendering: -moz-crisp-edges; image-rendering: crisp-edges;">
  <!-- Fireball Magic Effect - High Quality 8-bit pixel art -->
  
  <!-- Outer fire ring -->
  <rect x="3" y="6" width="10" height="4" fill="#FF4500"/>
  <rect x="5" y="4" width="6" height="8" fill="#FF4500"/>
  <rect x="6" y="3" width="4" height="10" fill="#FF4500"/>
  
  <!-- Middle orange layer -->
  <rect x="5" y="6" width="6" height="4" fill="#FF8C00"/>
  <rect x="6" y="5" width="4" height="6" fill="#FF8C00"/>
  
  <!-- Hot yellow core -->
  <rect x="6" y="6" width="4" height="4" fill="#FFD700"/>
  <rect x="7" y="7" width="2" height="2" fill="#FFFF99"/>
  
  <!-- Flame tendrils -->
  <rect x="2" y="7" width="1" height="2" fill="#FF6347"/>
  <rect x="13" y="7" width="1" height="2" fill="#FF6347"/>
  <rect x="7" y="2" width="2" height="1" fill="#FF6347"/>
  <rect x="7" y="13" width="2" height="1" fill="#FF6347"/>
  
  <!-- Sparks -->
  <rect x="1" y="5" width="1" height="1" fill="#FFFF99"/>
  <rect x="14" y="6" width="1" height="1" fill="#FFFF99"/>
  <rect x="4" y="1" width="1" height="1" fill="#FFFF99"/>
  <rect x="11" y="14" width="1" height="1" fill="#FFFF99"/>
  
  <!-- White hot center -->
  <rect x="7" y="7" width="2" height="2" fill="#FFFFFF"/>
</svg>
